<svg width="119" height="146" viewBox="0 0 119 146" fill="none" xmlns="http://www.w3.org/2000/svg">
<path d="M107.55 0.779813C103.845 0.126308 100.076 0.83664 96.9136 2.76874C93.7195 4.72926 91.4836 7.76948 90.8448 11.1507L84.1691 44.792C82.1888 42.5189 79.378 40.8425 76.0881 40.2174C72.2871 39.5071 68.4222 40.1606 65.2281 42.0927C64.3338 42.6325 63.5672 43.2292 62.8326 43.8827C61.0439 40.2743 57.4346 37.4329 52.9309 36.5805C49.1299 35.8702 45.265 36.5237 42.0709 38.4558C41.1766 38.9957 40.41 39.5923 39.6754 40.2458C37.8867 36.6373 34.2774 33.796 29.7737 32.9436C25.9727 32.2333 22.1078 32.8868 18.8818 34.8189C15.6558 36.751 13.5157 39.6776 12.845 43.0872L9.65087 59.1975L5.27496 81.3314C5.05137 82.4964 5.91378 83.6045 7.22336 83.8034C7.35112 83.8318 7.51083 83.8318 7.63859 83.8318C8.78846 83.8318 9.77863 83.093 10.0022 82.0702L12.5575 69.2274C14.6975 71.6425 17.7319 73.2336 21.1816 73.7735C22.012 73.9156 22.8425 73.9724 23.673 73.9724C26.5476 73.9724 29.3584 73.1768 31.754 71.6993C32.5206 71.2163 33.2233 70.7048 33.8302 70.1082C34.7668 72.0032 36.2169 73.6621 38.0508 74.9364C39.8847 76.2108 42.0451 77.0608 44.3388 77.4104C45.1692 77.5525 45.9678 77.6093 46.7982 77.6093C49.2577 77.6093 51.6532 77.041 53.7613 75.9897C54.3363 77.4388 55.1348 78.8311 56.1569 80.1381C59.0635 83.8602 63.4395 86.3322 68.4542 87.1277L77.1102 88.4916L74.3952 102.187C74.1716 103.352 75.034 104.46 76.3436 104.659C76.4714 104.687 76.6311 104.687 76.7588 104.687C77.9087 104.687 78.8989 103.948 79.1225 102.925L82.2527 87.1561C82.4763 85.9912 81.6139 84.8831 80.3043 84.6842L69.2847 82.951C65.5156 82.3543 62.2576 80.5074 60.0537 77.7229C57.8498 74.9384 57.0193 71.5573 57.6901 68.2329L58.4247 64.5108L81.9652 68.2045H82.0291L102.823 71.472L89.4075 139.096C89.0561 140.886 87.1397 142.079 85.0954 141.766L13.4838 130.486C12.4936 130.344 11.6632 129.861 11.0882 129.123C10.5133 128.412 10.2897 127.531 10.4813 126.651L12.7811 115.001C12.8769 114.433 12.7491 113.865 12.3978 113.41C12.0464 112.955 11.4715 112.643 10.8646 112.529L7.98994 112.075C5.88184 111.734 4.47643 109.944 4.85973 108.097L8.34129 90.4805C8.56488 89.3155 7.70247 88.2074 6.39289 88.0085C5.08331 87.8096 3.83761 88.5768 3.61403 89.7417L0.132461 107.358C-0.698004 111.535 2.46415 115.541 7.15947 116.28L7.67053 116.365L5.78601 125.912C5.40272 127.901 5.88184 129.918 7.19142 131.566C8.501 133.214 10.4494 134.322 12.6853 134.663L84.2969 145.886C84.808 145.972 85.2871 146 85.7662 146C89.8227 146 93.4001 143.414 94.1347 139.749L114.992 34.4779C115.216 33.313 114.353 32.2049 113.044 32.006C111.734 31.8071 110.489 32.5743 110.265 33.7392L103.621 67.21L85.1593 64.3119L85.7981 61.1296V61.1012L95.5721 11.8894C96.0192 9.64475 97.5205 7.599 99.6605 6.26357C101.737 4.98498 104.228 4.53036 106.656 4.92815C111.638 5.80896 114.96 10.0994 114.066 14.5602L111.926 25.3289C111.702 26.4938 112.565 27.6019 113.874 27.8008C115.184 27.9997 116.43 27.2326 116.653 26.0676L118.793 15.299C120.103 8.62187 115.056 2.08682 107.55 0.779813ZM35.9702 46.9514L32.8081 62.8344C31.9137 67.3521 27.0268 70.3923 21.9481 69.5967C19.4887 69.199 17.3486 68.0056 15.9113 66.1587C14.474 64.3403 13.931 62.1241 14.3462 59.9362L16.2626 50.1905L17.5403 43.7975C17.9875 41.5528 19.3929 39.6207 21.5329 38.3421C23.098 37.4045 24.8867 36.9215 26.7393 36.9215C27.41 36.9215 28.0489 36.9783 28.7196 37.1204C33.6385 38.0296 36.8646 42.4621 35.9702 46.9514ZM82.3166 54.2252L80.464 63.6015L58.1053 60.1067C57.1471 59.9646 56.1889 60.1351 55.3903 60.6466C54.5918 61.1296 54.0488 61.8967 53.8891 62.7207L52.9628 67.4657C52.7073 68.8012 52.6115 70.165 52.7073 71.472C50.5992 73.0063 47.8523 73.6598 45.1692 73.2336C40.6655 72.5233 37.4395 69.0853 37.4395 65.0506C37.4395 64.5676 37.5034 64.0846 37.5992 63.6015L40.7933 47.4912C41.2405 45.2466 42.6459 43.3145 44.7859 42.0359C46.926 40.7573 49.4813 40.3311 51.9726 40.7857C56.8277 41.6949 60.0537 46.099 59.1913 50.5883L58.5844 53.6569C58.3608 54.8218 59.2232 55.93 60.5328 56.1289C61.8424 56.3277 63.0881 55.5606 63.3117 54.3956L63.9186 51.3838V51.3554V51.327L63.9505 51.1281C64.3977 48.8835 65.8031 46.9514 67.9431 45.6728C70.0832 44.3942 72.6385 43.968 75.1299 44.4226C79.9529 45.3034 83.2109 49.7359 82.3166 54.2252Z" fill="#D6A354"/>
<path d="M36.8409 85.9856L34.4924 85.6165L35.8114 82.5782C36.1653 80.3065 31.983 79.9658 31.436 81.1584L29.7952 84.9066L26.385 84.3671L27.7041 81.3572C28.1545 79.0571 23.8434 78.7448 23.3286 79.909L21.72 83.6572L18.5993 83.1745C16.7655 82.8905 15.8647 86.4115 17.8594 86.7239L20.2401 87.093L18.9532 90.0178L15.8647 89.535C13.9987 89.2511 13.1623 92.7721 15.1248 93.0845L17.4733 93.4536L15.9612 96.9462C15.736 98.0537 17.602 99.2463 19.5323 98.8203C19.9827 98.7068 20.2723 98.5648 20.401 98.3376L22.2026 94.1919L25.6129 94.7314L24.1008 98.224C23.8756 99.3599 25.8702 100.524 27.6719 100.098C28.1223 99.9846 28.3797 99.8142 28.5084 99.6154L30.31 95.4981L33.3985 95.9808C33.7846 96.0376 34.1707 95.924 34.5245 95.6401C35.7471 94.703 35.3932 92.6585 34.1385 92.4598L31.7899 92.0906L33.0768 89.1659L36.1653 89.6486C36.5514 89.7054 36.9053 89.5918 37.2914 89.3079C38.3852 88.2572 38.0957 86.1844 36.8409 85.9856ZM27.0284 91.2672L23.6182 90.7276L24.9051 87.8029L28.3153 88.3424L27.0284 91.2672ZM45.3022 81.9535L40.4121 83.6288C38.0957 84.3955 39.093 87.8881 41.2807 87.0362L42.3424 86.6671L39.3504 101.688C39.2539 102.143 39.4469 102.54 39.8973 102.852C40.3477 103.165 40.959 103.392 41.6668 103.506C42.3746 103.619 43.018 103.591 43.5649 103.42C44.1118 103.25 44.4657 102.938 44.5301 102.483L48.2942 83.714C48.5838 82.493 46.3961 81.5559 45.3022 81.9535ZM38.3209 113.501C38.9643 110.349 37.227 108.446 33.1412 107.822L27.2536 106.913C26.7711 106.828 26.3528 106.885 25.9668 107.027C25.5807 107.169 25.3555 107.424 25.2911 107.765L21.7844 125.256C21.72 125.54 21.8487 125.824 22.1061 126.08C22.3957 126.336 22.7817 126.506 23.2965 126.591L29.7631 127.585C31.6291 127.869 33.2055 127.642 34.4924 126.932C35.7793 126.194 36.6157 124.831 37.0018 122.843L37.1305 122.275C37.3879 121.026 37.3235 120.032 36.9053 119.293C36.5192 118.555 35.8114 117.93 34.8784 117.419C36.7123 116.993 37.8705 115.687 38.3209 113.501ZM33.2055 121.48L33.109 121.906C32.7229 123.865 31.5325 124.689 29.57 124.376L26.1276 123.837L27.3823 117.618L30.8248 118.158C31.7899 118.3 32.4977 118.64 32.8838 119.18C33.302 119.719 33.3985 120.486 33.2055 121.48ZM34.235 113.501C34.1063 114.211 33.7846 114.75 33.2698 115.091C32.7551 115.432 32.1116 115.545 31.3395 115.432L27.9293 114.892L28.8301 110.32L32.2082 110.86C32.9803 110.974 33.5272 111.286 33.9133 111.74C34.2672 112.195 34.3637 112.791 34.235 113.501ZM49.9672 110.434L43.9188 109.497C43.5649 109.44 43.2432 109.497 42.9537 109.667C42.6641 109.838 42.5032 110.065 42.4389 110.377L38.9321 127.869C38.8678 128.21 38.9965 128.522 39.3504 128.778C39.7043 129.033 40.1547 129.203 40.6694 129.289C41.2164 129.374 41.6989 129.345 42.1172 129.203C42.5354 129.061 42.7928 128.834 42.8571 128.494L44.2727 121.48L46.8465 121.877L49.6776 129.97C49.9028 130.566 50.2889 130.936 50.868 131.021C51.4471 131.106 52.0584 131.021 52.6696 130.708C53.2809 130.396 53.6348 130.027 53.6991 129.573C53.7313 129.402 53.6991 129.232 53.6348 129.118L50.9645 121.963C52.2514 121.821 53.3453 121.366 54.2461 120.6C55.1469 119.805 55.7582 118.697 56.0477 117.221C56.7877 113.444 54.7608 111.201 49.9672 110.434ZM52.0262 116.908C51.6401 118.811 50.3854 119.577 48.1977 119.265L44.8518 118.754L45.9778 112.99L49.3237 113.501C51.5114 113.842 52.4123 114.977 52.0262 116.908ZM71.8121 115.375C70.7182 114.182 69.0774 113.416 66.8897 113.075C64.702 112.734 62.9004 112.961 61.3883 113.756C59.9084 114.551 58.9432 116 58.525 118.129L57.0129 125.626C56.5946 127.755 56.9164 129.431 58.0102 130.595C59.1041 131.787 60.7448 132.554 62.9004 132.895C65.0881 133.236 66.9219 133.008 68.4018 132.213C69.9139 131.418 70.8469 129.97 71.2973 127.84L72.8094 120.344C73.2598 118.214 72.9059 116.567 71.8121 115.375ZM68.8522 119.748L67.3401 127.244C66.9219 129.317 65.6672 130.169 63.5116 129.828C61.3883 129.487 60.5518 128.295 60.9701 126.25L62.4821 118.754C62.9004 116.681 64.1551 115.829 66.2785 116.142C68.4018 116.482 69.2705 117.675 68.8522 119.748Z" fill="#D6A354"/>
</svg>
