<svg width="128" height="146" viewBox="0 0 128 146" fill="none" xmlns="http://www.w3.org/2000/svg">
<path d="M121.175 56.7461H102.125V51.1285C102.125 49.6742 101.075 48.4765 99.8001 48.4765H49.5751C48.3001 48.4765 47.2501 49.6742 47.2501 51.1285C47.2501 52.5828 48.3001 53.7804 49.5751 53.7804H97.4751V74.1121C97.4751 91.9628 89.1001 108.559 75.6251 117.598H31.0001C17.5001 108.559 9.1251 91.9628 9.1251 74.1121V53.7804H24.7001C25.9751 53.7804 27.0251 52.5828 27.0251 51.1285C27.0251 49.6742 25.9751 48.4765 24.7001 48.4765H6.8001C5.5251 48.4765 4.4751 49.6742 4.4751 51.1285V74.1121C4.4751 84.121 6.8501 93.9589 11.3001 102.542C14.3251 108.331 18.2251 113.407 22.8001 117.598H6.8001C5.5251 117.598 4.4751 118.796 4.4751 120.25C4.4751 129.889 11.3501 137.759 19.8251 137.759H92.3501C100.8 137.759 107.7 129.917 107.7 120.25C107.7 118.796 106.65 117.598 105.375 117.598H83.7751C87.9751 113.749 91.6251 109.101 94.5501 103.882H101.1C113.45 103.882 123.475 92.4191 123.475 78.3609V59.398C123.5 57.9437 122.475 56.7461 121.175 56.7461ZM102.8 122.902C101.725 128.377 97.4501 132.455 92.3501 132.455H19.8251C14.7251 132.455 10.4501 128.377 9.3751 122.902H102.8ZM102.125 74.1121V72.6578H109.575V78.3609C109.575 83.6648 105.775 87.9992 101.125 87.9992H100.6C101.6 83.4652 102.125 78.7886 102.125 74.1121ZM118.85 78.3609C118.85 89.5105 110.9 98.5785 101.125 98.5785H97.1751C97.9251 96.8675 98.5751 95.0711 99.1501 93.2746H101.125C108.35 93.2746 114.225 86.5734 114.225 78.3324V69.9773C114.225 68.523 113.175 67.3254 111.9 67.3254H102.125V62.0214H118.875V78.3609H118.85ZM55.5251 16.6531L54.3251 14.9422C52.5501 12.4043 52.5501 8.83981 54.3251 6.30192C55.1251 5.1613 54.9501 3.47887 53.9501 2.59489C52.9501 1.71091 51.4751 1.882 50.6751 3.02262C49.1578 5.18837 48.3313 7.87826 48.3313 10.6506C48.3313 13.4229 49.1578 16.1127 50.6751 18.2785L51.8751 19.9894C54.2001 23.2972 54.2001 27.9453 51.8751 31.2816L50.6501 33.0496C49.8501 34.1902 50.0251 35.8726 51.0251 36.7566C51.4501 37.1558 51.9501 37.3269 52.4751 37.3269C53.1501 37.3269 53.8501 36.9847 54.3001 36.3289L55.5251 34.5609C59.2001 29.257 59.2001 21.9285 55.5251 16.6531ZM68.4251 22.6129L67.2251 20.9019C65.4501 18.364 65.4501 14.7996 67.2251 12.2617C68.0251 11.1211 67.8501 9.43864 66.8501 8.55466C65.8501 7.64216 64.3751 7.84176 63.5751 8.98239C62.0578 11.1481 61.2313 13.838 61.2313 16.6103C61.2313 19.3826 62.0578 22.0725 63.5751 24.2382L64.7751 25.9492C67.1001 29.257 67.1001 33.905 64.7751 37.2414L63.5501 39.0093C62.7501 40.15 62.9251 41.8324 63.9251 42.7164C64.3501 43.1156 64.8501 43.2867 65.3751 43.2867C66.0501 43.2867 66.7501 42.9445 67.2001 42.2886L68.4251 40.5207C72.1001 35.2453 72.1001 27.8883 68.4251 22.6129ZM42.6251 22.6129L41.4251 20.9019C39.6501 18.364 39.6501 14.7996 41.4251 12.2617C42.2251 11.1211 42.0501 9.43864 41.0501 8.55466C40.0501 7.64216 38.5751 7.84176 37.7751 8.98239C34.6501 13.4593 34.6501 19.7613 37.8001 24.2382L39.0001 25.9492C41.3251 29.257 41.3251 33.905 39.0001 37.2414L37.7751 39.0093C36.9751 40.15 37.1501 41.8324 38.1501 42.7449C38.5751 43.1441 39.0751 43.3152 39.6001 43.3152C40.2751 43.3152 40.9751 42.973 41.4251 42.3172L42.6501 40.5492C46.3251 35.2453 46.3001 27.8883 42.6251 22.6129Z" fill="#D6A354"/>
<path d="M39.4252 49.275C38.9752 48.7618 38.4002 48.5051 37.7752 48.5051C37.1502 48.5051 36.5752 48.7903 36.1252 49.275C35.6752 49.7883 35.4502 50.4442 35.4502 51.1571C35.4502 51.87 35.7002 52.5258 36.1252 53.0391C36.5752 53.5524 37.1502 53.809 37.7752 53.809C38.4002 53.809 38.9752 53.5239 39.4252 53.0391C39.8752 52.5258 40.1002 51.87 40.1002 51.1571C40.1002 50.4157 39.8502 49.7313 39.4252 49.275ZM88.6502 71.4602C87.3752 71.4602 86.3252 72.6579 86.3252 74.1122C86.3252 83.95 82.8252 93.6168 76.7252 100.66C75.8252 101.687 75.8252 103.398 76.7502 104.396C77.2252 104.909 77.8002 105.166 78.3752 105.166C78.9752 105.166 79.5502 104.909 80.0252 104.367C86.9752 96.3829 90.9752 85.3473 90.9752 74.1122C90.9752 72.6579 89.9252 71.4602 88.6502 71.4602ZM72.8002 107.846C72.1752 106.563 70.7502 106.135 69.6502 106.848L69.6002 106.877C68.4752 107.589 68.1002 109.215 68.7252 110.47C69.1502 111.354 69.9252 111.81 70.7502 111.81C71.1502 111.81 71.5502 111.696 71.9002 111.468L71.9502 111.439C73.0502 110.726 73.4252 109.101 72.8002 107.846Z" fill="#D6A354"/>
</svg>
