<svg width="478" height="178" viewBox="0 0 478 178" fill="none" xmlns="http://www.w3.org/2000/svg">
<path d="M5.96591 149.227C4.94318 149.227 4.0625 148.986 3.32386 148.503C2.58523 148.02 2.01705 147.355 1.61932 146.507C1.22159 145.66 1.02273 144.691 1.02273 143.602C1.02273 142.494 1.22633 141.517 1.63352 140.669C2.04545 139.817 2.61837 139.152 3.35227 138.673C4.09091 138.19 4.95265 137.949 5.9375 137.949C6.70455 137.949 7.39583 138.091 8.01136 138.375C8.62689 138.659 9.13116 139.057 9.52415 139.568C9.91714 140.08 10.161 140.676 10.2557 141.358H8.57955C8.4517 140.861 8.16761 140.42 7.72727 140.037C7.29167 139.649 6.70455 139.455 5.96591 139.455C5.3125 139.455 4.73958 139.625 4.24716 139.966C3.75947 140.302 3.37831 140.778 3.10369 141.393C2.83381 142.004 2.69886 142.722 2.69886 143.545C2.69886 144.388 2.83144 145.122 3.09659 145.747C3.36648 146.372 3.74527 146.857 4.23295 147.203C4.72538 147.549 5.30303 147.722 5.96591 147.722C6.40152 147.722 6.79688 147.646 7.15199 147.494C7.5071 147.343 7.80777 147.125 8.05398 146.841C8.30019 146.557 8.47538 146.216 8.57955 145.818H10.2557C10.161 146.462 9.92661 147.042 9.55256 147.558C9.18324 148.07 8.69318 148.477 8.08239 148.78C7.47633 149.078 6.77083 149.227 5.96591 149.227ZM11.8466 139.653V138.091H20.7102V139.653H17.1307V149H15.4545V139.653H11.8466ZM23.1552 153.091V138.091H24.7745V139.824H24.9734C25.0965 139.634 25.2669 139.393 25.4847 139.099C25.7073 138.801 26.0245 138.536 26.4364 138.304C26.8531 138.067 27.4165 137.949 28.1268 137.949C29.0453 137.949 29.855 138.179 30.5558 138.638C31.2565 139.097 31.8034 139.748 32.1964 140.591C32.5894 141.434 32.7859 142.428 32.7859 143.574C32.7859 144.729 32.5894 145.731 32.1964 146.578C31.8034 147.421 31.2589 148.074 30.5629 148.538C29.8668 148.998 29.0643 149.227 28.1552 149.227C27.4544 149.227 26.8933 149.111 26.4719 148.879C26.0505 148.643 25.7262 148.375 25.4989 148.077C25.2717 147.774 25.0965 147.523 24.9734 147.324H24.8313V153.091H23.1552ZM24.8029 143.545C24.8029 144.369 24.9237 145.096 25.1651 145.726C25.4066 146.351 25.7594 146.841 26.2234 147.196C26.6874 147.546 27.2556 147.722 27.9279 147.722C28.6287 147.722 29.2134 147.537 29.6822 147.168C30.1557 146.794 30.5108 146.292 30.7475 145.662C30.989 145.027 31.1097 144.322 31.1097 143.545C31.1097 142.778 30.9914 142.087 30.7546 141.472C30.5226 140.851 30.1699 140.361 29.6964 140.001C29.2276 139.637 28.6381 139.455 27.9279 139.455C27.2461 139.455 26.6732 139.627 26.2092 139.973C25.7451 140.314 25.3948 140.792 25.158 141.408C24.9213 142.018 24.8029 142.731 24.8029 143.545ZM36.0316 153.091C35.7475 153.091 35.4942 153.067 35.2717 153.02C35.0491 152.977 34.8952 152.935 34.81 152.892L35.2362 151.415C35.6433 151.519 36.0032 151.557 36.3157 151.528C36.6282 151.5 36.9052 151.36 37.1467 151.109C37.3929 150.863 37.6178 150.463 37.8214 149.909L38.1339 149.057L34.0998 138.091H35.918L38.9293 146.784H39.043L42.0543 138.091H43.8725L39.2418 150.591C39.0335 151.154 38.7754 151.621 38.4677 151.99C38.1599 152.364 37.8024 152.641 37.3952 152.821C36.9928 153.001 36.5382 153.091 36.0316 153.091ZM46.0849 149V138.091H47.761V142.835H48.869L52.7894 138.091H54.9485L50.5451 143.347L55.0053 149H52.8462L49.2667 144.398H47.761V149H46.0849ZM56.2021 139.653V138.091H65.0657V139.653H61.4862V149H59.81V139.653H56.2021ZM68.5902 153.091C68.3061 153.091 68.0528 153.067 67.8303 153.02C67.6077 152.977 67.4538 152.935 67.3686 152.892L67.7947 151.415C68.2019 151.519 68.5618 151.557 68.8743 151.528C69.1868 151.5 69.4638 151.36 69.7053 151.109C69.9515 150.863 70.1764 150.463 70.38 149.909L70.6925 149.057L66.6584 138.091H68.4766L71.4879 146.784H71.6016L74.6129 138.091H76.4311L71.8004 150.591C71.5921 151.154 71.334 151.621 71.0263 151.99C70.7185 152.364 70.361 152.641 69.9538 152.821C69.5514 153.001 69.0968 153.091 68.5902 153.091ZM78.6435 153.091V138.091H80.2628V139.824H80.4616C80.5848 139.634 80.7552 139.393 80.973 139.099C81.1955 138.801 81.5128 138.536 81.9247 138.304C82.3414 138.067 82.9048 137.949 83.6151 137.949C84.5336 137.949 85.3433 138.179 86.044 138.638C86.7448 139.097 87.2917 139.748 87.6847 140.591C88.0777 141.434 88.2741 142.428 88.2741 143.574C88.2741 144.729 88.0777 145.731 87.6847 146.578C87.2917 147.421 86.7472 148.074 86.0511 148.538C85.3551 148.998 84.5526 149.227 83.6435 149.227C82.9427 149.227 82.3816 149.111 81.9602 148.879C81.5388 148.643 81.2145 148.375 80.9872 148.077C80.7599 147.774 80.5848 147.523 80.4616 147.324H80.3196V153.091H78.6435ZM80.2912 143.545C80.2912 144.369 80.4119 145.096 80.6534 145.726C80.8949 146.351 81.2476 146.841 81.7116 147.196C82.1757 147.546 82.7438 147.722 83.4162 147.722C84.117 147.722 84.7017 147.537 85.1705 147.168C85.6439 146.794 85.9991 146.292 86.2358 145.662C86.4773 145.027 86.598 144.322 86.598 143.545C86.598 142.778 86.4796 142.087 86.2429 141.472C86.0109 140.851 85.6581 140.361 85.1847 140.001C84.7159 139.637 84.1264 139.455 83.4162 139.455C82.7344 139.455 82.1615 139.627 81.6974 139.973C81.2334 140.314 80.883 140.792 80.6463 141.408C80.4096 142.018 80.2912 142.731 80.2912 143.545ZM94.0412 149.256C93.3499 149.256 92.7225 149.125 92.1591 148.865C91.5956 148.6 91.1482 148.219 90.8168 147.722C90.4853 147.22 90.3196 146.614 90.3196 145.903C90.3196 145.278 90.4427 144.772 90.6889 144.384C90.9351 143.991 91.2642 143.683 91.6761 143.46C92.0881 143.238 92.5426 143.072 93.0398 142.963C93.5417 142.849 94.0459 142.759 94.5526 142.693C95.2154 142.608 95.7528 142.544 96.1648 142.501C96.5814 142.454 96.8845 142.376 97.0739 142.267C97.268 142.158 97.3651 141.969 97.3651 141.699V141.642C97.3651 140.941 97.1733 140.397 96.7898 140.009C96.411 139.62 95.8357 139.426 95.0639 139.426C94.2637 139.426 93.6364 139.601 93.1818 139.952C92.7273 140.302 92.4077 140.676 92.223 141.074L90.6321 140.506C90.9162 139.843 91.295 139.327 91.7685 138.957C92.2467 138.583 92.7675 138.323 93.331 138.176C93.8991 138.025 94.4579 137.949 95.0071 137.949C95.3575 137.949 95.7599 137.991 96.2145 138.077C96.6738 138.157 97.1165 138.325 97.5426 138.581C97.9735 138.837 98.331 139.223 98.6151 139.739C98.8991 140.255 99.0412 140.946 99.0412 141.812V149H97.3651V147.523H97.2798C97.1662 147.759 96.9768 148.013 96.7116 148.283C96.4465 148.553 96.0938 148.782 95.6534 148.972C95.2131 149.161 94.6757 149.256 94.0412 149.256ZM94.2969 147.75C94.9598 147.75 95.5185 147.62 95.973 147.359C96.4323 147.099 96.7779 146.763 97.0099 146.351C97.2467 145.939 97.3651 145.506 97.3651 145.051V143.517C97.294 143.602 97.1378 143.68 96.8963 143.751C96.6596 143.818 96.3849 143.877 96.0724 143.929C95.7647 143.976 95.464 144.019 95.1705 144.057C94.8816 144.09 94.6473 144.118 94.4673 144.142C94.0317 144.199 93.6245 144.291 93.2457 144.419C92.8717 144.542 92.5687 144.729 92.3366 144.98C92.1094 145.226 91.9957 145.562 91.9957 145.989C91.9957 146.571 92.2112 147.011 92.642 147.31C93.0777 147.603 93.6293 147.75 94.2969 147.75ZM108.805 153.091C108.521 153.091 108.268 153.067 108.045 153.02C107.823 152.977 107.669 152.935 107.583 152.892L108.01 151.415C108.417 151.519 108.777 151.557 109.089 151.528C109.402 151.5 109.679 151.36 109.92 151.109C110.166 150.863 110.391 150.463 110.595 149.909L110.907 149.057L106.873 138.091H108.691L111.703 146.784H111.816L114.828 138.091H116.646L112.015 150.591C111.807 151.154 111.549 151.621 111.241 151.99C110.933 152.364 110.576 152.641 110.169 152.821C109.766 153.001 109.312 153.091 108.805 153.091ZM118.858 149V138.091H127.438V149H125.762V139.653H120.534V149H118.858ZM130.499 153.091V138.091H132.118V139.824H132.317C132.44 139.634 132.611 139.393 132.828 139.099C133.051 138.801 133.368 138.536 133.78 138.304C134.197 138.067 134.76 137.949 135.471 137.949C136.389 137.949 137.199 138.179 137.9 138.638C138.6 139.097 139.147 139.748 139.54 140.591C139.933 141.434 140.13 142.428 140.13 143.574C140.13 144.729 139.933 145.731 139.54 146.578C139.147 147.421 138.603 148.074 137.907 148.538C137.211 148.998 136.408 149.227 135.499 149.227C134.798 149.227 134.237 149.111 133.816 148.879C133.394 148.643 133.07 148.375 132.843 148.077C132.615 147.774 132.44 147.523 132.317 147.324H132.175V153.091H130.499ZM132.147 143.545C132.147 144.369 132.267 145.096 132.509 145.726C132.75 146.351 133.103 146.841 133.567 147.196C134.031 147.546 134.599 147.722 135.272 147.722C135.972 147.722 136.557 147.537 137.026 147.168C137.499 146.794 137.855 146.292 138.091 145.662C138.333 145.027 138.453 144.322 138.453 143.545C138.453 142.778 138.335 142.087 138.098 141.472C137.866 140.851 137.514 140.361 137.04 140.001C136.571 139.637 135.982 139.455 135.272 139.455C134.59 139.455 134.017 139.627 133.553 139.973C133.089 140.314 132.739 140.792 132.502 141.408C132.265 142.018 132.147 142.731 132.147 143.545ZM145.897 149.256C145.205 149.256 144.578 149.125 144.015 148.865C143.451 148.6 143.004 148.219 142.672 147.722C142.341 147.22 142.175 146.614 142.175 145.903C142.175 145.278 142.298 144.772 142.544 144.384C142.791 143.991 143.12 143.683 143.532 143.46C143.944 143.238 144.398 143.072 144.895 142.963C145.397 142.849 145.901 142.759 146.408 142.693C147.071 142.608 147.608 142.544 148.02 142.501C148.437 142.454 148.74 142.376 148.929 142.267C149.123 142.158 149.221 141.969 149.221 141.699V141.642C149.221 140.941 149.029 140.397 148.645 140.009C148.266 139.62 147.691 139.426 146.919 139.426C146.119 139.426 145.492 139.601 145.037 139.952C144.583 140.302 144.263 140.676 144.078 141.074L142.488 140.506C142.772 139.843 143.15 139.327 143.624 138.957C144.102 138.583 144.623 138.323 145.186 138.176C145.755 138.025 146.313 137.949 146.863 137.949C147.213 137.949 147.615 137.991 148.07 138.077C148.529 138.157 148.972 138.325 149.398 138.581C149.829 138.837 150.186 139.223 150.471 139.739C150.755 140.255 150.897 140.946 150.897 141.812V149H149.221V147.523H149.135C149.022 147.759 148.832 148.013 148.567 148.283C148.302 148.553 147.949 148.782 147.509 148.972C147.069 149.161 146.531 149.256 145.897 149.256ZM146.152 147.75C146.815 147.75 147.374 147.62 147.828 147.359C148.288 147.099 148.633 146.763 148.865 146.351C149.102 145.939 149.221 145.506 149.221 145.051V143.517C149.15 143.602 148.993 143.68 148.752 143.751C148.515 143.818 148.24 143.877 147.928 143.929C147.62 143.976 147.319 144.019 147.026 144.057C146.737 144.09 146.503 144.118 146.323 144.142C145.887 144.199 145.48 144.291 145.101 144.419C144.727 144.542 144.424 144.729 144.192 144.98C143.965 145.226 143.851 145.562 143.851 145.989C143.851 146.571 144.067 147.011 144.498 147.31C144.933 147.603 145.485 147.75 146.152 147.75ZM153.956 149V138.091H158.416C159.59 138.091 160.523 138.356 161.214 138.886C161.906 139.417 162.251 140.117 162.251 140.989C162.251 141.652 162.055 142.165 161.662 142.53C161.269 142.89 160.765 143.134 160.149 143.261C160.552 143.318 160.942 143.46 161.321 143.688C161.705 143.915 162.022 144.227 162.273 144.625C162.524 145.018 162.649 145.501 162.649 146.074C162.649 146.633 162.507 147.132 162.223 147.572C161.939 148.013 161.532 148.361 161.001 148.616C160.471 148.872 159.837 149 159.098 149H153.956ZM155.547 147.466H159.098C159.676 147.466 160.128 147.329 160.455 147.054C160.781 146.779 160.945 146.405 160.945 145.932C160.945 145.368 160.781 144.926 160.455 144.604C160.128 144.277 159.676 144.114 159.098 144.114H155.547V147.466ZM155.547 142.665H158.416C158.866 142.665 159.252 142.603 159.574 142.48C159.896 142.352 160.142 142.172 160.312 141.94C160.488 141.704 160.575 141.424 160.575 141.102C160.575 140.643 160.384 140.283 160 140.023C159.616 139.758 159.089 139.625 158.416 139.625H155.547V142.665ZM164.221 149V147.438H164.618C164.945 147.438 165.217 147.374 165.435 147.246C165.653 147.113 165.828 146.884 165.961 146.557C166.098 146.225 166.202 145.766 166.273 145.179C166.349 144.587 166.403 143.834 166.436 142.92L166.635 138.091H173.908V149H172.232V139.653H168.226L168.056 143.545C168.018 144.44 167.937 145.229 167.814 145.911C167.696 146.588 167.514 147.156 167.267 147.615C167.026 148.074 166.704 148.42 166.301 148.652C165.899 148.884 165.395 149 164.789 149H164.221ZM183.546 149V139.625H180.648C179.995 139.625 179.481 139.777 179.107 140.08C178.733 140.383 178.546 140.799 178.546 141.33C178.546 141.85 178.714 142.26 179.05 142.558C179.391 142.857 179.857 143.006 180.449 143.006H183.972V144.568H180.449C179.711 144.568 179.074 144.438 178.539 144.178C178.004 143.917 177.592 143.545 177.303 143.062C177.014 142.575 176.87 141.997 176.87 141.33C176.87 140.657 177.021 140.08 177.324 139.597C177.627 139.114 178.06 138.742 178.624 138.482C179.192 138.221 179.867 138.091 180.648 138.091H185.137V149H183.546ZM176.273 149L179.37 143.574H181.188L178.091 149H176.273ZM193.441 142.864V144.426H187.674V142.864H193.441ZM189.094 138.091V149H187.418V138.091H189.094ZM196.793 149.227C195.808 149.227 194.944 148.993 194.201 148.524C193.462 148.055 192.885 147.4 192.468 146.557C192.056 145.714 191.85 144.729 191.85 143.602C191.85 142.466 192.056 141.474 192.468 140.626C192.885 139.779 193.462 139.121 194.201 138.652C194.944 138.183 195.808 137.949 196.793 137.949C197.778 137.949 198.64 138.183 199.379 138.652C200.122 139.121 200.7 139.779 201.112 140.626C201.528 141.474 201.737 142.466 201.737 143.602C201.737 144.729 201.528 145.714 201.112 146.557C200.7 147.4 200.122 148.055 199.379 148.524C198.64 148.993 197.778 149.227 196.793 149.227ZM196.793 147.722C197.541 147.722 198.157 147.53 198.64 147.146C199.123 146.763 199.48 146.259 199.712 145.634C199.944 145.009 200.06 144.331 200.06 143.602C200.06 142.873 199.944 142.194 199.712 141.564C199.48 140.934 199.123 140.425 198.64 140.037C198.157 139.649 197.541 139.455 196.793 139.455C196.045 139.455 195.43 139.649 194.947 140.037C194.464 140.425 194.106 140.934 193.874 141.564C193.642 142.194 193.526 142.873 193.526 143.602C193.526 144.331 193.642 145.009 193.874 145.634C194.106 146.259 194.464 146.763 194.947 147.146C195.43 147.53 196.045 147.722 196.793 147.722ZM219.35 147.438L219.151 152.125H217.418V149H215.998V147.438H219.35ZM204.464 138.091H206.14V147.438H210.259V138.091H211.935V147.438H216.055V138.091H217.731V149H204.464V138.091ZM226.245 149.227C225.194 149.227 224.287 148.995 223.525 148.531C222.767 148.062 222.182 147.409 221.77 146.571C221.363 145.728 221.159 144.748 221.159 143.631C221.159 142.513 221.363 141.528 221.77 140.676C222.182 139.819 222.755 139.152 223.489 138.673C224.228 138.19 225.089 137.949 226.074 137.949C226.642 137.949 227.203 138.044 227.757 138.233C228.311 138.422 228.816 138.73 229.27 139.156C229.725 139.578 230.087 140.136 230.357 140.832C230.627 141.528 230.762 142.385 230.762 143.403V144.114H222.353V142.665H229.057C229.057 142.049 228.934 141.5 228.688 141.017C228.446 140.534 228.101 140.153 227.651 139.874C227.206 139.594 226.68 139.455 226.074 139.455C225.407 139.455 224.829 139.62 224.341 139.952C223.858 140.278 223.487 140.705 223.226 141.23C222.966 141.756 222.836 142.319 222.836 142.92V143.886C222.836 144.71 222.978 145.409 223.262 145.982C223.551 146.55 223.951 146.983 224.462 147.281C224.973 147.575 225.568 147.722 226.245 147.722C226.685 147.722 227.083 147.66 227.438 147.537C227.798 147.409 228.108 147.22 228.368 146.969C228.629 146.713 228.83 146.396 228.972 146.017L230.591 146.472C230.421 147.021 230.134 147.504 229.732 147.92C229.329 148.332 228.832 148.654 228.24 148.886C227.649 149.114 226.983 149.227 226.245 149.227ZM234.988 146.528L240.243 138.091H242.175V149H240.499V140.562L235.272 149H233.311V138.091H234.988V146.528ZM239.135 134.455H240.698C240.698 135.222 240.433 135.849 239.902 136.337C239.372 136.824 238.652 137.068 237.743 137.068C236.848 137.068 236.136 136.824 235.605 136.337C235.08 135.849 234.817 135.222 234.817 134.455H236.38C236.38 134.824 236.481 135.148 236.685 135.428C236.893 135.707 237.246 135.847 237.743 135.847C238.24 135.847 238.596 135.707 238.809 135.428C239.026 135.148 239.135 134.824 239.135 134.455ZM1.53409 173V162.091H3.21023V166.835H4.31818L8.23864 162.091H10.3977L5.99432 167.347L10.4545 173H8.29545L4.71591 168.398H3.21023V173H1.53409ZM16.2589 173.227C15.274 173.227 14.4099 172.993 13.6665 172.524C12.9279 172.055 12.3503 171.4 11.9336 170.557C11.5217 169.714 11.3157 168.729 11.3157 167.602C11.3157 166.466 11.5217 165.474 11.9336 164.626C12.3503 163.779 12.9279 163.121 13.6665 162.652C14.4099 162.183 15.274 161.949 16.2589 161.949C17.2437 161.949 18.1055 162.183 18.8441 162.652C19.5875 163.121 20.1651 163.779 20.5771 164.626C20.9937 165.474 21.2021 166.466 21.2021 167.602C21.2021 168.729 20.9937 169.714 20.5771 170.557C20.1651 171.4 19.5875 172.055 18.8441 172.524C18.1055 172.993 17.2437 173.227 16.2589 173.227ZM16.2589 171.722C17.007 171.722 17.6225 171.53 18.1055 171.146C18.5884 170.763 18.9459 170.259 19.1779 169.634C19.4099 169.009 19.5259 168.331 19.5259 167.602C19.5259 166.873 19.4099 166.194 19.1779 165.564C18.9459 164.934 18.5884 164.425 18.1055 164.037C17.6225 163.649 17.007 163.455 16.2589 163.455C15.5108 163.455 14.8952 163.649 14.4123 164.037C13.9293 164.425 13.5719 164.934 13.3398 165.564C13.1078 166.194 12.9918 166.873 12.9918 167.602C12.9918 168.331 13.1078 169.009 13.3398 169.634C13.5719 170.259 13.9293 170.763 14.4123 171.146C14.8952 171.53 15.5108 171.722 16.2589 171.722ZM29.7266 170.727L33.5334 162.091H35.1243L30.4084 173H29.0447L24.4141 162.091H25.9766L29.7266 170.727ZM25.4368 162.091V173H23.7607V162.091H25.4368ZM34.0163 173V162.091H35.6925V173H34.0163ZM38.7607 173V162.091H47.3402V173H45.6641V163.653H40.4368V173H38.7607ZM53.6115 173.256C52.9202 173.256 52.2929 173.125 51.7294 172.865C51.166 172.6 50.7185 172.219 50.3871 171.722C50.0556 171.22 49.8899 170.614 49.8899 169.903C49.8899 169.278 50.013 168.772 50.2592 168.384C50.5054 167.991 50.8345 167.683 51.2464 167.46C51.6584 167.238 52.1129 167.072 52.6101 166.963C53.112 166.849 53.6162 166.759 54.1229 166.693C54.7857 166.608 55.3232 166.544 55.7351 166.501C56.1518 166.454 56.4548 166.376 56.6442 166.267C56.8383 166.158 56.9354 165.969 56.9354 165.699V165.642C56.9354 164.941 56.7436 164.397 56.3601 164.009C55.9813 163.62 55.406 163.426 54.6342 163.426C53.834 163.426 53.2067 163.601 52.7521 163.952C52.2976 164.302 51.978 164.676 51.7933 165.074L50.2024 164.506C50.4865 163.843 50.8653 163.327 51.3388 162.957C51.817 162.583 52.3378 162.323 52.9013 162.176C53.4695 162.025 54.0282 161.949 54.5774 161.949C54.9278 161.949 55.3303 161.991 55.7848 162.077C56.2441 162.157 56.6868 162.325 57.1129 162.581C57.5438 162.837 57.9013 163.223 58.1854 163.739C58.4695 164.255 58.6115 164.946 58.6115 165.812V173H56.9354V171.523H56.8501C56.7365 171.759 56.5471 172.013 56.282 172.283C56.0168 172.553 55.6641 172.782 55.2237 172.972C54.7834 173.161 54.246 173.256 53.6115 173.256ZM53.8672 171.75C54.5301 171.75 55.0888 171.62 55.5433 171.359C56.0026 171.099 56.3482 170.763 56.5803 170.351C56.817 169.939 56.9354 169.506 56.9354 169.051V167.517C56.8643 167.602 56.7081 167.68 56.4666 167.751C56.2299 167.818 55.9553 167.877 55.6428 167.929C55.335 167.976 55.0343 168.019 54.7408 168.057C54.4519 168.09 54.2176 168.118 54.0376 168.142C53.602 168.199 53.1948 168.291 52.8161 168.419C52.442 168.542 52.139 168.729 51.907 168.98C51.6797 169.226 51.5661 169.562 51.5661 169.989C51.5661 170.571 51.7815 171.011 52.2124 171.31C52.648 171.603 53.1996 171.75 53.8672 171.75ZM68.9719 166.778V168.341H62.9492V166.778H68.9719ZM63.3469 162.091V173H61.6708V162.091H63.3469ZM70.2504 162.091V173H68.5742V162.091H70.2504ZM74.9876 170.528L80.2433 162.091H82.1751V173H80.4989V164.562L75.2717 173H73.3114V162.091H74.9876V170.528ZM86.9212 170.528L92.1768 162.091H94.1087V173H92.4325V164.562L87.2053 173H85.245V162.091H86.9212V170.528Z" fill="white" fill-opacity="0.75"/>
<g clip-path="url(#clip0_84_101)">
<path d="M413.356 117.795C413.356 117.541 413.356 117.286 413.356 117.032V36.9676C413.356 36.7133 413.356 36.4589 413.356 36.2045C419.522 36.0753 424.448 31.6977 424.466 26.3316H424.447C424.437 20.8801 419.366 16.4603 413.1 16.4428H411.766C409.637 5.6693 397.874 -1.56287 385.491 0.289294C375.995 1.70981 368.557 8.18085 366.925 16.4428H365.591C359.316 16.5915 354.368 21.1376 354.538 26.5971C354.7 31.7617 359.404 35.9478 365.335 36.2045C365.335 36.4589 365.335 36.7133 365.335 36.9676V117.032C365.335 117.286 365.335 117.541 365.335 117.795C359.066 118.066 354.237 122.709 354.549 128.163C354.844 133.323 359.655 137.416 365.591 137.557H366.925C369.053 148.33 380.817 155.562 393.2 153.71C402.696 152.29 410.134 145.819 411.766 137.557H413.1C419.375 137.408 424.323 132.862 424.152 127.402C423.991 122.238 419.287 118.052 413.356 117.795ZM378.729 10.5763H378.765C384.634 5.47534 394.144 5.47932 400.007 10.5855C401.87 12.2075 403.209 14.2278 403.891 16.4428H374.837C375.518 14.2234 376.861 12.2 378.729 10.5763ZM361.936 26.2839C361.936 24.528 363.573 23.1043 365.591 23.1043H413.1C415.118 23.1456 416.715 24.6023 416.667 26.3579C416.646 27.1492 416.286 27.9052 415.658 28.4779L415.64 28.5415C414.959 29.1289 414.041 29.46 413.082 29.4636H365.591C363.573 29.4636 361.936 28.0403 361.936 26.2839ZM373.064 94.1859V82.2939L405.626 110.641V117C405.653 117.254 405.653 117.509 405.626 117.763H400.181L373.064 94.1859ZM389.181 117.795H373.137C373.11 117.541 373.11 117.286 373.137 117.032V103.709L389.181 117.795ZM405.626 59.8136V71.7215L373.064 43.3588V36.9994C373.037 36.7455 373.037 36.4903 373.064 36.2363H378.437L405.626 59.8136ZM389.437 36.2045H405.553C405.58 36.4585 405.58 36.7137 405.553 36.9676V50.2905L389.437 36.2045ZM405.626 81.2287V101.118L373.064 72.7708V52.8819L405.626 81.2287ZM399.998 143.423C394.13 148.524 384.62 148.52 378.757 143.414C376.894 141.792 375.555 139.772 374.873 137.557H403.854C403.172 139.776 401.83 141.8 399.962 143.423H399.998ZM415.589 129.939C414.921 130.501 414.03 130.821 413.1 130.832H365.591C363.573 130.832 361.936 129.408 361.936 127.652C361.936 125.896 363.573 124.473 365.591 124.473H413.1C414.063 124.497 414.976 124.851 415.64 125.458L415.677 125.442C417.079 126.705 417.041 128.718 415.589 129.939Z" fill="#D6A354"/>
</g>
<mask id="path-3-inside-1_84_101" fill="white">
<path d="M0 24H350V130H0V24Z"/>
</mask>
<path d="M0 29H350V19H0V29ZM350 125H0V135H350V125Z" fill="#D6A354" mask="url(#path-3-inside-1_84_101)"/>
<path d="M85.625 92L75.625 78.6477H72.0455V92H68.5227V62.9091H72.0455V75.5227H73.5795L85.2273 62.9091H89.4318L77.6705 75.6932L89.8295 92H85.625ZM117.56 77.4545C117.56 80.5227 117.006 83.1742 115.898 85.4091C114.79 87.6439 113.271 89.3674 111.339 90.5795C109.407 91.7917 107.201 92.3977 104.719 92.3977C102.238 92.3977 100.032 91.7917 98.1001 90.5795C96.1683 89.3674 94.6484 87.6439 93.5405 85.4091C92.4325 83.1742 91.8786 80.5227 91.8786 77.4545C91.8786 74.3864 92.4325 71.7348 93.5405 69.5C94.6484 67.2652 96.1683 65.5417 98.1001 64.3295C100.032 63.1174 102.238 62.5114 104.719 62.5114C107.201 62.5114 109.407 63.1174 111.339 64.3295C113.271 65.5417 114.79 67.2652 115.898 69.5C117.006 71.7348 117.56 74.3864 117.56 77.4545ZM114.151 77.4545C114.151 74.9356 113.73 72.8097 112.887 71.0767C112.054 69.3438 110.922 68.0322 109.492 67.142C108.072 66.2519 106.481 65.8068 104.719 65.8068C102.958 65.8068 101.362 66.2519 99.9325 67.142C98.5121 68.0322 97.3804 69.3438 96.5376 71.0767C95.7043 72.8097 95.2876 74.9356 95.2876 77.4545C95.2876 79.9735 95.7043 82.0994 96.5376 83.8324C97.3804 85.5653 98.5121 86.8769 99.9325 87.767C101.362 88.6572 102.958 89.1023 104.719 89.1023C106.481 89.1023 108.072 88.6572 109.492 87.767C110.922 86.8769 112.054 85.5653 112.887 83.8324C113.73 82.0994 114.151 79.9735 114.151 77.4545ZM123.484 92V62.9091H127.006V75.8636H142.518V62.9091H146.04V92H142.518V78.9886H127.006V92H123.484ZM151.502 66.0341V62.9091H173.32V66.0341H164.173V92H160.65V66.0341H151.502ZM176.552 92H172.859L183.54 62.9091H187.177L197.859 92H194.165L185.472 67.5114H185.245L176.552 92ZM177.915 80.6364H192.802V83.7614H177.915V80.6364ZM219.492 92L209.492 78.6477H205.913V92H202.39V62.9091H205.913V75.5227H207.447L219.094 62.9091H223.299L211.538 75.6932L223.697 92H219.492ZM226.658 66.0341V62.9091H248.477V66.0341H239.329V92H235.806V66.0341H226.658ZM256.527 75.125H264.822C266.906 75.125 268.662 75.4659 270.092 76.1477C271.532 76.8295 272.621 77.7907 273.359 79.0312C274.107 80.2718 274.482 81.7348 274.482 83.4205C274.482 85.1061 274.107 86.5928 273.359 87.8807C272.621 89.1686 271.532 90.1771 270.092 90.9062C268.662 91.6354 266.906 92 264.822 92H253.913V62.9091H257.436V88.9318H264.822C266.148 88.9318 267.27 88.6667 268.189 88.1364C269.117 87.5966 269.818 86.9053 270.291 86.0625C270.774 85.2102 271.016 84.3106 271.016 83.3636C271.016 81.9716 270.481 80.7737 269.411 79.7699C268.34 78.7566 266.811 78.25 264.822 78.25H256.527V75.125ZM280.845 62.9091V92H277.322V62.9091H280.845Z" fill="white"/>
<defs>
<clipPath id="clip0_84_101">
<rect width="177" height="154" fill="white" transform="translate(301)"/>
</clipPath>
</defs>
</svg>
