<svg width="181" height="91" viewBox="0 0 181 91" fill="none" xmlns="http://www.w3.org/2000/svg">
<path d="M28.0682 43.4545C28.0682 46.5227 27.5142 49.1742 26.4062 51.4091C25.2983 53.6439 23.7784 55.3674 21.8466 56.5795C19.9148 57.7917 17.7083 58.3977 15.2273 58.3977C12.7462 58.3977 10.5398 57.7917 8.60795 56.5795C6.67614 55.3674 5.15625 53.6439 4.0483 51.4091C2.94034 49.1742 2.38636 46.5227 2.38636 43.4545C2.38636 40.3864 2.94034 37.7348 4.0483 35.5C5.15625 33.2652 6.67614 31.5417 8.60795 30.3295C10.5398 29.1174 12.7462 28.5114 15.2273 28.5114C17.7083 28.5114 19.9148 29.1174 21.8466 30.3295C23.7784 31.5417 25.2983 33.2652 26.4062 35.5C27.5142 37.7348 28.0682 40.3864 28.0682 43.4545ZM24.6591 43.4545C24.6591 40.9356 24.2377 38.8097 23.3949 37.0767C22.5616 35.3438 21.4299 34.0322 20 33.142C18.5795 32.2519 16.9886 31.8068 15.2273 31.8068C13.4659 31.8068 11.8703 32.2519 10.4403 33.142C9.01989 34.0322 7.88826 35.3438 7.04545 37.0767C6.21212 38.8097 5.79545 40.9356 5.79545 43.4545C5.79545 45.9735 6.21212 48.0994 7.04545 49.8324C7.88826 51.5653 9.01989 52.8769 10.4403 53.767C11.8703 54.6572 13.4659 55.1023 15.2273 55.1023C16.9886 55.1023 18.5795 54.6572 20 53.767C21.4299 52.8769 22.5616 51.5653 23.3949 49.8324C24.2377 48.0994 24.6591 45.9735 24.6591 43.4545ZM36.8892 28.9091V58H33.5369V28.9091H36.8892ZM51.2678 58.4545C49.4496 58.4545 47.8445 57.9953 46.4524 57.0767C45.0604 56.1487 43.9714 54.8419 43.1854 53.1562C42.3994 51.4612 42.0064 49.4583 42.0064 47.1477C42.0064 44.8561 42.3994 42.8674 43.1854 41.1818C43.9714 39.4962 45.0651 38.1941 46.4666 37.2756C47.8681 36.357 49.4875 35.8977 51.3246 35.8977C52.745 35.8977 53.8672 36.1345 54.6911 36.608C55.5244 37.072 56.1589 37.6023 56.5945 38.1989C57.0395 38.786 57.3852 39.2689 57.6314 39.6477H57.9155V28.9091H61.2678V58H58.0291V54.6477H57.6314C57.3852 55.0455 57.0348 55.5473 56.5803 56.1534C56.1257 56.75 55.477 57.285 54.6342 57.7585C53.7914 58.2225 52.6693 58.4545 51.2678 58.4545ZM51.7223 55.4432C53.067 55.4432 54.2034 55.0928 55.1314 54.392C56.0594 53.6818 56.7649 52.7017 57.2479 51.4517C57.7308 50.1922 57.9723 48.7386 57.9723 47.0909C57.9723 45.4621 57.7356 44.0369 57.2621 42.8153C56.7886 41.5843 56.0878 40.6278 55.1598 39.946C54.2318 39.2547 53.0859 38.9091 51.7223 38.9091C50.3018 38.9091 49.1181 39.2737 48.1712 40.0028C47.2337 40.7225 46.5282 41.7027 46.0547 42.9432C45.5907 44.1742 45.3587 45.5568 45.3587 47.0909C45.3587 48.6439 45.5954 50.0549 46.0689 51.3239C46.5518 52.5833 47.2621 53.5871 48.1996 54.3352C49.1465 55.0739 50.3208 55.4432 51.7223 55.4432ZM102.077 28.9091H106.282L116.168 53.0568H116.509L126.396 28.9091H130.6V58H127.305V35.8977H127.021L117.93 58H114.748L105.657 35.8977H105.373V58H102.077V28.9091ZM143.629 58.5114C142.247 58.5114 140.992 58.2509 139.865 57.7301C138.738 57.1998 137.843 56.4375 137.18 55.4432C136.518 54.4394 136.186 53.2273 136.186 51.8068C136.186 50.5568 136.432 49.5436 136.925 48.767C137.417 47.9811 138.075 47.3655 138.899 46.9205C139.723 46.4754 140.632 46.1439 141.626 45.9261C142.63 45.6989 143.639 45.5189 144.652 45.3864C145.978 45.2159 147.053 45.0881 147.876 45.0028C148.71 44.9081 149.316 44.7519 149.695 44.5341C150.083 44.3163 150.277 43.9375 150.277 43.3977V43.2841C150.277 41.8826 149.893 40.7936 149.126 40.017C148.369 39.2405 147.218 38.8523 145.675 38.8523C144.074 38.8523 142.82 39.2027 141.911 39.9034C141.001 40.6042 140.362 41.3523 139.993 42.1477L136.811 41.0114C137.379 39.6856 138.137 38.6534 139.084 37.9148C140.04 37.1667 141.082 36.6458 142.209 36.3523C143.345 36.0492 144.463 35.8977 145.561 35.8977C146.262 35.8977 147.067 35.983 147.976 36.1534C148.894 36.3144 149.78 36.6506 150.632 37.1619C151.494 37.6733 152.209 38.4451 152.777 39.4773C153.345 40.5095 153.629 41.892 153.629 43.625V58H150.277V55.0455H150.107C149.879 55.5189 149.5 56.0256 148.97 56.5653C148.44 57.1051 147.734 57.5644 146.854 57.9432C145.973 58.322 144.898 58.5114 143.629 58.5114ZM144.141 55.5C145.466 55.5 146.584 55.2396 147.493 54.7188C148.411 54.1979 149.103 53.5256 149.567 52.7017C150.04 51.8778 150.277 51.0114 150.277 50.1023V47.0341C150.135 47.2045 149.822 47.3608 149.339 47.5028C148.866 47.6354 148.317 47.7538 147.692 47.858C147.076 47.9527 146.475 48.0379 145.888 48.1136C145.31 48.1799 144.841 48.2367 144.482 48.2841C143.61 48.3977 142.796 48.5824 142.038 48.8381C141.29 49.0843 140.684 49.4583 140.22 49.9602C139.766 50.4527 139.538 51.125 139.538 51.9773C139.538 53.142 139.969 54.0227 140.831 54.6193C141.702 55.2064 142.805 55.5 144.141 55.5ZM163.1 44.875V58H159.748V36.1818H162.987V39.5909H163.271C163.782 38.483 164.558 37.5928 165.6 36.9205C166.642 36.2386 167.987 35.8977 169.634 35.8977C171.112 35.8977 172.404 36.2008 173.512 36.8068C174.62 37.4034 175.482 38.3125 176.097 39.5341C176.713 40.7462 177.021 42.2803 177.021 44.1364V58H173.668V44.3636C173.668 42.6496 173.223 41.3144 172.333 40.358C171.443 39.392 170.221 38.9091 168.668 38.9091C167.598 38.9091 166.642 39.1411 165.799 39.6051C164.966 40.0691 164.308 40.7462 163.825 41.6364C163.342 42.5265 163.1 43.6061 163.1 44.875Z" fill="white"/>
<ellipse cx="84.12" cy="10.563" rx="12.12" ry="10.563" fill="#D9D9D9"/>
<ellipse cx="84.12" cy="84.5043" rx="12.12" ry="6.33782" fill="#838383"/>
<ellipse cx="84.12" cy="23.2387" rx="12.12" ry="6.33782" fill="#838383"/>
<rect x="72.5" y="23.7388" width="23.24" height="60.2656" fill="#D9D9D9" stroke="black"/>
<path d="M72.5117 32.5843L83.7676 23.7479" stroke="black"/>
<path d="M72.5117 44.7345L95.5351 27.0616" stroke="black"/>
<path d="M72.5117 56.3323L95.5351 38.1071" stroke="black"/>
<path d="M72.5117 66.8256L95.5351 49.7049" stroke="black"/>
<path d="M72.5117 76.7666L95.5351 61.3028" stroke="black"/>
<path d="M82.7441 83.9462L95.5349 74.5574" stroke="black"/>
<path d="M84 24H89H95.5V26.5L89.5 31.5L83.5 36L73 44V32.5L84 24Z" fill="#FF0000"/>
<path d="M73 56.5L83 48.5L95.5 38.5V49.5L73 66V56.5Z" fill="#0037FF"/>
<path d="M73 77L95 62H95.5V74L82.5 83.5H73V77Z" fill="#FF0000"/>
</svg>
