<svg width="119" height="146" viewBox="0 0 119 146" fill="none" xmlns="http://www.w3.org/2000/svg">
<path d="M29.2156 38.0296C28.675 37.6497 27.9435 37.4054 27.1803 37.4054C25.4311 37.4054 24 38.6267 24 40.1195C24 41.3951 25.0495 42.4807 26.417 42.7521C26.6714 42.8064 26.9258 42.8336 27.1803 42.8336C28.9294 42.8336 30.3605 41.6122 30.3605 40.1195C30.3605 39.2781 29.9153 38.5453 29.2156 38.0296ZM77.8419 49.8087C77.4603 48.8317 76.4744 48.0989 75.2659 47.9632L65.9795 46.8233L61.8452 39.6309C61.3045 38.7082 60.1914 38.1111 58.9829 38.1111C57.7744 38.1111 56.6613 38.7082 56.1207 39.6309L51.9863 46.8233L42.7 47.9632C41.4915 48.0989 40.5056 48.8317 40.1239 49.8087C39.7423 50.7858 40.0603 51.8714 40.919 52.6042L47.6294 58.1952L46.0392 66.0932C45.8484 67.1246 46.3255 68.1288 47.3113 68.753C48.2972 69.3501 49.6011 69.4315 50.6506 68.9702L58.9511 65.2519L67.2516 68.9702C68.3011 69.4587 69.605 69.3773 70.5909 68.753C71.5768 68.1559 72.0538 67.1246 71.863 66.0932L70.2729 58.1952L76.9832 52.6042C77.9055 51.8714 78.2235 50.7858 77.8419 49.8087ZM64.6756 55.3183C63.9123 55.9426 63.5943 56.8382 63.7533 57.7339L64.5484 61.615L60.4458 59.7694C59.5236 59.3623 58.4105 59.3623 57.4882 59.7694L53.3856 61.615L54.1807 57.7339C54.3715 56.8654 54.0217 55.9426 53.2584 55.3183L49.951 52.5771L54.5305 51.98C55.58 51.8443 56.4705 51.3015 56.9157 50.4873L58.9511 46.959L60.9865 50.4873C61.4635 51.3015 62.354 51.8443 63.3717 51.98L67.9513 52.55L64.6756 55.3183Z" fill="#D6A354"/>
<path d="M59.5218 18.4761C43.0067 18.4761 33.0056 27.3397 32.7753 27.4526C31.4265 28.497 31.3278 30.2754 32.545 31.4327C33.7623 32.5901 35.8349 32.6747 37.1837 31.6303C43.7634 26.521 51.5932 24.1217 59.4889 24.1217C77.616 24.1217 92.3874 36.796 92.3874 52.3496C92.3874 67.875 77.7147 80.5776 59.4889 80.5776C40.8683 80.5776 25.7021 67.2258 26.6233 50.91C26.6562 50.4301 26.6891 49.9503 26.7549 49.4704C26.9194 47.9178 25.6034 46.5347 23.794 46.3935C21.9846 46.2524 20.3726 47.3815 20.2081 48.934C20.1423 49.4986 20.1094 50.0632 20.0436 50.6277C18.9908 70.1615 37.1508 86.2232 59.5218 86.2232C81.4651 86.2232 99 70.8954 99 52.3496C99 33.6627 81.3006 18.4761 59.5218 18.4761Z" fill="#D6A354"/>
<path d="M118.33 51.4588L109.47 41.3438L111.428 28.6717C111.62 27.3931 110.818 26.143 109.47 25.6599L96.0828 20.8298L90.6253 8.98159C90.0796 7.78825 88.6671 7.04951 87.2225 7.2484L72.9048 8.98159L61.4763 1.13964C60.3206 0.344079 58.7155 0.344079 57.5277 1.13964L46.0992 8.98159L31.7815 7.2484C30.3369 7.07793 28.9243 7.78825 28.3786 8.98159L22.9212 20.8298L9.53444 25.6599C8.18614 26.143 7.38357 27.3931 7.57619 28.6717L9.53444 41.3438L0.674152 51.4588C-0.224717 52.4817 -0.224717 53.9023 0.674152 54.9536L9.53444 65.0686L7.57619 77.7407C7.38357 79.0193 8.18614 80.2695 9.53444 80.7525L22.9212 85.5827L28.3786 97.4308C28.9243 98.6242 30.3369 99.3629 31.7815 99.164L37.0142 98.5389V143.176C37.0142 144.312 37.7846 145.363 39.0045 145.79C40.1923 146.216 41.5727 145.988 42.5037 145.164L59.4859 130.134L76.4681 145.164C77.3991 145.988 78.7795 146.216 79.9673 145.79C81.1551 145.363 81.9577 144.312 81.9577 143.176V98.5105L87.1904 99.1356C88.635 99.3061 90.0475 98.5957 90.5932 97.4024L96.0507 85.5543L109.437 80.7241C110.786 80.241 111.588 78.9909 111.396 77.7123L109.437 65.0402L118.298 54.9252C119.229 53.9023 119.229 52.4817 118.33 51.4588ZM75.5693 136.328L61.7973 124.139C60.5453 123.031 58.5229 123.031 57.2709 124.139L43.4668 136.328V97.7434L46.1313 97.4308L57.5598 105.273C58.1376 105.671 58.8439 105.869 59.518 105.869C60.2243 105.869 60.8984 105.671 61.4763 105.273L72.9048 97.4308L75.5693 97.7434V136.328ZM103.563 62.5114C103.049 63.1081 102.792 63.8752 102.921 64.6424L104.718 76.3201L92.391 80.7809C91.5884 81.065 90.9464 81.6333 90.6253 82.3436L85.5853 93.2541L79.9994 92.5722C79.4858 92.3733 78.94 92.3165 78.3301 92.3733L72.3911 91.663C71.5244 91.5494 70.6576 91.7767 69.9834 92.2313L59.518 99.4197L48.9884 92.2029C48.3143 91.7483 47.4475 91.521 46.5807 91.6346L33.3866 93.2257L28.3786 82.3152C28.0576 81.6049 27.4155 81.0366 26.613 80.7525L14.2856 76.2917L16.0833 64.614C16.2118 63.8468 15.9549 63.0797 15.4413 62.483L7.28727 53.1636L15.4413 43.8442C15.9549 43.2475 16.2118 42.4804 16.0833 41.7132L14.2856 30.0355L26.613 25.5747C27.4155 25.2906 28.0576 24.7223 28.3786 24.012L33.4187 13.1015L46.6128 14.6926C47.4796 14.8062 48.3464 14.5789 49.0205 14.1243L59.518 6.99269L70.0476 14.2096C70.7218 14.6642 71.5886 14.8915 72.4553 14.7778L85.6495 13.1867L90.6574 24.0688C90.9785 24.7791 91.6205 25.3474 92.4231 25.6315L104.75 30.0923L102.953 41.77C102.824 42.5372 103.081 43.3043 103.595 43.901L111.749 53.2204L103.563 62.5114Z" fill="#D6A354"/>
</svg>
