<svg width="478" height="178" viewBox="0 0 478 178" fill="none" xmlns="http://www.w3.org/2000/svg">
<path d="M5.96591 149.227C4.98106 149.227 4.11695 148.993 3.37358 148.524C2.63494 148.055 2.05729 147.4 1.64062 146.557C1.22869 145.714 1.02273 144.729 1.02273 143.602C1.02273 142.466 1.22869 141.474 1.64062 140.626C2.05729 139.779 2.63494 139.121 3.37358 138.652C4.11695 138.183 4.98106 137.949 5.96591 137.949C6.95076 137.949 7.8125 138.183 8.55114 138.652C9.29451 139.121 9.87216 139.779 10.2841 140.626C10.7008 141.474 10.9091 142.466 10.9091 143.602C10.9091 144.729 10.7008 145.714 10.2841 146.557C9.87216 147.4 9.29451 148.055 8.55114 148.524C7.8125 148.993 6.95076 149.227 5.96591 149.227ZM5.96591 147.722C6.71402 147.722 7.32955 147.53 7.8125 147.146C8.29545 146.763 8.65294 146.259 8.88494 145.634C9.11695 145.009 9.23295 144.331 9.23295 143.602C9.23295 142.873 9.11695 142.194 8.88494 141.564C8.65294 140.934 8.29545 140.425 7.8125 140.037C7.32955 139.649 6.71402 139.455 5.96591 139.455C5.2178 139.455 4.60227 139.649 4.11932 140.037C3.63636 140.425 3.27888 140.934 3.04688 141.564C2.81487 142.194 2.69886 142.873 2.69886 143.602C2.69886 144.331 2.81487 145.009 3.04688 145.634C3.27888 146.259 3.63636 146.763 4.11932 147.146C4.60227 147.53 5.2178 147.722 5.96591 147.722ZM17.8995 149.227C16.8768 149.227 15.9961 148.986 15.2575 148.503C14.5188 148.02 13.9506 147.355 13.5529 146.507C13.1552 145.66 12.9563 144.691 12.9563 143.602C12.9563 142.494 13.1599 141.517 13.5671 140.669C13.979 139.817 14.552 139.152 15.2859 138.673C16.0245 138.19 16.8862 137.949 17.8711 137.949C18.6381 137.949 19.3294 138.091 19.945 138.375C20.5605 138.659 21.0647 139.057 21.4577 139.568C21.8507 140.08 22.0946 140.676 22.1893 141.358H20.5131C20.3853 140.861 20.1012 140.42 19.6609 140.037C19.2253 139.649 18.6381 139.455 17.8995 139.455C17.2461 139.455 16.6732 139.625 16.1808 139.966C15.6931 140.302 15.3119 140.778 15.0373 141.393C14.7674 142.004 14.6325 142.722 14.6325 143.545C14.6325 144.388 14.765 145.122 15.0302 145.747C15.3001 146.372 15.6789 146.857 16.1665 147.203C16.659 147.549 17.2366 147.722 17.8995 147.722C18.3351 147.722 18.7305 147.646 19.0856 147.494C19.4407 147.343 19.7414 147.125 19.9876 146.841C20.2338 146.557 20.409 146.216 20.5131 145.818H22.1893C22.0946 146.462 21.8602 147.042 21.4862 147.558C21.1168 148.07 20.6268 148.477 20.016 148.78C19.4099 149.078 18.7044 149.227 17.8995 149.227ZM31.9407 142.778V144.341H25.918V142.778H31.9407ZM26.3157 138.091V149H24.6396V138.091H26.3157ZM33.2191 138.091V149H31.543V138.091H33.2191ZM40.712 149.227C39.7272 149.227 38.863 148.993 38.1197 148.524C37.381 148.055 36.8034 147.4 36.3867 146.557C35.9748 145.714 35.7688 144.729 35.7688 143.602C35.7688 142.466 35.9748 141.474 36.3867 140.626C36.8034 139.779 37.381 139.121 38.1197 138.652C38.863 138.183 39.7272 137.949 40.712 137.949C41.6969 137.949 42.5586 138.183 43.2972 138.652C44.0406 139.121 44.6183 139.779 45.0302 140.626C45.4469 141.474 45.6552 142.466 45.6552 143.602C45.6552 144.729 45.4469 145.714 45.0302 146.557C44.6183 147.4 44.0406 148.055 43.2972 148.524C42.5586 148.993 41.6969 149.227 40.712 149.227ZM40.712 147.722C41.4601 147.722 42.0756 147.53 42.5586 147.146C43.0415 146.763 43.399 146.259 43.631 145.634C43.863 145.009 43.979 144.331 43.979 143.602C43.979 142.873 43.863 142.194 43.631 141.564C43.399 140.934 43.0415 140.425 42.5586 140.037C42.0756 139.649 41.4601 139.455 40.712 139.455C39.9639 139.455 39.3484 139.649 38.8654 140.037C38.3825 140.425 38.025 140.934 37.793 141.564C37.561 142.194 37.445 142.873 37.445 143.602C37.445 144.331 37.561 145.009 37.793 145.634C38.025 146.259 38.3825 146.763 38.8654 147.146C39.3484 147.53 39.9639 147.722 40.712 147.722ZM48.2138 149V138.091H52.674C53.8482 138.091 54.781 138.356 55.4723 138.886C56.1636 139.417 56.5092 140.117 56.5092 140.989C56.5092 141.652 56.3127 142.165 55.9197 142.53C55.5268 142.89 55.0225 143.134 54.407 143.261C54.8094 143.318 55.2 143.46 55.5788 143.688C55.9624 143.915 56.2796 144.227 56.5305 144.625C56.7815 145.018 56.907 145.501 56.907 146.074C56.907 146.633 56.7649 147.132 56.4808 147.572C56.1967 148.013 55.7895 148.361 55.2592 148.616C54.7289 148.872 54.0945 149 53.3558 149H48.2138ZM49.8047 147.466H53.3558C53.9335 147.466 54.3857 147.329 54.7124 147.054C55.0391 146.779 55.2024 146.405 55.2024 145.932C55.2024 145.368 55.0391 144.926 54.7124 144.604C54.3857 144.277 53.9335 144.114 53.3558 144.114H49.8047V147.466ZM49.8047 142.665H52.674C53.1238 142.665 53.5097 142.603 53.8317 142.48C54.1536 142.352 54.3999 142.172 54.5703 141.94C54.7455 141.704 54.8331 141.424 54.8331 141.102C54.8331 140.643 54.6413 140.283 54.2578 140.023C53.8743 139.758 53.3464 139.625 52.674 139.625H49.8047V142.665ZM66.7454 142.778V144.341H60.7227V142.778H66.7454ZM61.1204 138.091V149H59.4442V138.091H61.1204ZM68.0238 138.091V149H66.3477V138.091H68.0238ZM72.5337 142.04H75.6587C76.9371 142.04 77.9149 142.364 78.592 143.013C79.2691 143.661 79.6076 144.483 79.6076 145.477C79.6076 146.131 79.4561 146.725 79.1531 147.26C78.85 147.79 78.4049 148.214 77.8178 148.531C77.2307 148.844 76.511 149 75.6587 149H71.0849V138.091H72.761V147.438H75.6587C76.3216 147.438 76.8661 147.262 77.2923 146.912C77.7184 146.562 77.9315 146.112 77.9315 145.562C77.9315 144.985 77.7184 144.514 77.2923 144.149C76.8661 143.785 76.3216 143.602 75.6587 143.602H72.5337V142.04ZM81.3406 149V138.091H83.0167V149H81.3406ZM90.6587 149.227C89.6076 149.227 88.7009 148.995 87.9386 148.531C87.181 148.062 86.5962 147.409 86.1843 146.571C85.7771 145.728 85.5735 144.748 85.5735 143.631C85.5735 142.513 85.7771 141.528 86.1843 140.676C86.5962 139.819 87.1692 139.152 87.9031 138.673C88.6417 138.19 89.5034 137.949 90.4883 137.949C91.0565 137.949 91.6175 138.044 92.1715 138.233C92.7255 138.422 93.2298 138.73 93.6843 139.156C94.1388 139.578 94.5011 140.136 94.771 140.832C95.0408 141.528 95.1758 142.385 95.1758 143.403V144.114H86.7667V142.665H93.4712C93.4712 142.049 93.3481 141.5 93.1019 141.017C92.8604 140.534 92.5148 140.153 92.065 139.874C91.6199 139.594 91.0943 139.455 90.4883 139.455C89.8207 139.455 89.243 139.62 88.7553 139.952C88.2724 140.278 87.9007 140.705 87.6403 141.23C87.3799 141.756 87.2496 142.319 87.2496 142.92V143.886C87.2496 144.71 87.3917 145.409 87.6758 145.982C87.9646 146.55 88.3647 146.983 88.8761 147.281C89.3874 147.575 89.9817 147.722 90.6587 147.722C91.0991 147.722 91.4968 147.66 91.8519 147.537C92.2118 147.409 92.5219 147.22 92.7823 146.969C93.0427 146.713 93.244 146.396 93.386 146.017L95.0053 146.472C94.8349 147.021 94.5484 147.504 94.146 147.92C93.7435 148.332 93.2463 148.654 92.6545 148.886C92.0626 149.114 91.3974 149.227 90.6587 149.227ZM110.652 142.778V144.341H104.629V142.778H110.652ZM105.027 138.091V149H103.35V138.091H105.027ZM111.93 138.091V149H110.254V138.091H111.93ZM119.423 149.227C118.438 149.227 117.574 148.993 116.831 148.524C116.092 148.055 115.514 147.4 115.098 146.557C114.686 145.714 114.48 144.729 114.48 143.602C114.48 142.466 114.686 141.474 115.098 140.626C115.514 139.779 116.092 139.121 116.831 138.652C117.574 138.183 118.438 137.949 119.423 137.949C120.408 137.949 121.27 138.183 122.008 138.652C122.752 139.121 123.329 139.779 123.741 140.626C124.158 141.474 124.366 142.466 124.366 143.602C124.366 144.729 124.158 145.714 123.741 146.557C123.329 147.4 122.752 148.055 122.008 148.524C121.27 148.993 120.408 149.227 119.423 149.227ZM119.423 147.722C120.171 147.722 120.787 147.53 121.27 147.146C121.752 146.763 122.11 146.259 122.342 145.634C122.574 145.009 122.69 144.331 122.69 143.602C122.69 142.873 122.574 142.194 122.342 141.564C122.11 140.934 121.752 140.425 121.27 140.037C120.787 139.649 120.171 139.455 119.423 139.455C118.675 139.455 118.059 139.649 117.576 140.037C117.093 140.425 116.736 140.934 116.504 141.564C116.272 142.194 116.156 142.873 116.156 143.602C116.156 144.331 116.272 145.009 116.504 145.634C116.736 146.259 117.093 146.763 117.576 147.146C118.059 147.53 118.675 147.722 119.423 147.722ZM126.925 149V138.091H131.385C132.559 138.091 133.492 138.356 134.183 138.886C134.875 139.417 135.22 140.117 135.22 140.989C135.22 141.652 135.024 142.165 134.631 142.53C134.238 142.89 133.733 143.134 133.118 143.261C133.52 143.318 133.911 143.46 134.29 143.688C134.673 143.915 134.991 144.227 135.241 144.625C135.492 145.018 135.618 145.501 135.618 146.074C135.618 146.633 135.476 147.132 135.192 147.572C134.908 148.013 134.5 148.361 133.97 148.616C133.44 148.872 132.805 149 132.067 149H126.925ZM128.516 147.466H132.067C132.644 147.466 133.097 147.329 133.423 147.054C133.75 146.779 133.913 146.405 133.913 145.932C133.913 145.368 133.75 144.926 133.423 144.604C133.097 144.277 132.644 144.114 132.067 144.114H128.516V147.466ZM128.516 142.665H131.385C131.835 142.665 132.221 142.603 132.543 142.48C132.865 142.352 133.111 142.172 133.281 141.94C133.456 141.704 133.544 141.424 133.544 141.102C133.544 140.643 133.352 140.283 132.969 140.023C132.585 139.758 132.057 139.625 131.385 139.625H128.516V142.665ZM142.587 149.227C141.602 149.227 140.738 148.993 139.995 148.524C139.256 148.055 138.678 147.4 138.262 146.557C137.85 145.714 137.644 144.729 137.644 143.602C137.644 142.466 137.85 141.474 138.262 140.626C138.678 139.779 139.256 139.121 139.995 138.652C140.738 138.183 141.602 137.949 142.587 137.949C143.572 137.949 144.434 138.183 145.172 138.652C145.916 139.121 146.493 139.779 146.905 140.626C147.322 141.474 147.53 142.466 147.53 143.602C147.53 144.729 147.322 145.714 146.905 146.557C146.493 147.4 145.916 148.055 145.172 148.524C144.434 148.993 143.572 149.227 142.587 149.227ZM142.587 147.722C143.335 147.722 143.951 147.53 144.434 147.146C144.917 146.763 145.274 146.259 145.506 145.634C145.738 145.009 145.854 144.331 145.854 143.602C145.854 142.873 145.738 142.194 145.506 141.564C145.274 140.934 144.917 140.425 144.434 140.037C143.951 139.649 143.335 139.455 142.587 139.455C141.839 139.455 141.223 139.649 140.74 140.037C140.257 140.425 139.9 140.934 139.668 141.564C139.436 142.194 139.32 142.873 139.32 143.602C139.32 144.331 139.436 145.009 139.668 145.634C139.9 146.259 140.257 146.763 140.74 147.146C141.223 147.53 141.839 147.722 142.587 147.722ZM154.521 149.227C153.498 149.227 152.617 148.986 151.879 148.503C151.14 148.02 150.572 147.355 150.174 146.507C149.776 145.66 149.577 144.691 149.577 143.602C149.577 142.494 149.781 141.517 150.188 140.669C150.6 139.817 151.173 139.152 151.907 138.673C152.646 138.19 153.507 137.949 154.492 137.949C155.259 137.949 155.951 138.091 156.566 138.375C157.182 138.659 157.686 139.057 158.079 139.568C158.472 140.08 158.716 140.676 158.81 141.358H157.134C157.006 140.861 156.722 140.42 156.282 140.037C155.846 139.649 155.259 139.455 154.521 139.455C153.867 139.455 153.294 139.625 152.802 139.966C152.314 140.302 151.933 140.778 151.658 141.393C151.388 142.004 151.254 142.722 151.254 143.545C151.254 144.388 151.386 145.122 151.651 145.747C151.921 146.372 152.3 146.857 152.788 147.203C153.28 147.549 153.858 147.722 154.521 147.722C154.956 147.722 155.352 147.646 155.707 147.494C156.062 147.343 156.362 147.125 156.609 146.841C156.855 146.557 157.03 146.216 157.134 145.818H158.81C158.716 146.462 158.481 147.042 158.107 147.558C157.738 148.07 157.248 148.477 156.637 148.78C156.031 149.078 155.326 149.227 154.521 149.227ZM160.401 139.653V138.091H169.265V139.653H165.685V149H164.009V139.653H160.401ZM173.386 146.528L178.642 138.091H180.574V149H178.897V140.562L173.67 149H171.71V138.091H173.386V146.528ZM5.14205 163.511C4.76326 163.516 4.3821 163.613 3.99858 163.803C3.61979 163.992 3.30256 164.243 3.04688 164.555C2.79593 164.863 2.67045 165.206 2.67045 165.585H1.02273C1.02273 165.112 1.13636 164.657 1.36364 164.222C1.59091 163.786 1.89631 163.398 2.27983 163.057C2.66809 162.716 3.10843 162.446 3.60085 162.247C4.09801 162.048 4.61174 161.949 5.14205 161.949C6.13636 161.949 6.97917 162.2 7.67045 162.702C8.36648 163.204 8.89441 163.866 9.25426 164.69C9.61885 165.514 9.80114 166.409 9.80114 167.375V167.773C9.80114 168.734 9.61885 169.629 9.25426 170.457C8.89441 171.281 8.36648 171.944 7.67045 172.446C6.97917 172.948 6.13636 173.199 5.14205 173.199C4.34659 173.199 3.63873 173.024 3.01847 172.673C2.3982 172.318 1.91051 171.845 1.5554 171.253C1.20028 170.661 1.02273 170.003 1.02273 169.278H2.67045C2.67045 169.69 2.78646 170.076 3.01847 170.436C3.25521 170.791 3.56061 171.08 3.93466 171.303C4.31345 171.52 4.71591 171.632 5.14205 171.636C5.77652 171.632 6.31629 171.433 6.76136 171.04C7.20644 170.647 7.54498 170.154 7.77699 169.562C8.009 168.971 8.125 168.374 8.125 167.773V167.375C8.125 166.759 8.009 166.158 7.77699 165.571C7.54972 164.979 7.21354 164.489 6.76847 164.101C6.32813 163.713 5.78599 163.516 5.14205 163.511ZM8.80682 166.722V168.284H4.03409V166.722H8.80682ZM10.9286 163.653V162.091H19.7923V163.653H16.2127V173H14.5366V163.653H10.9286ZM26.1026 173.227C25.1178 173.227 24.2537 172.993 23.5103 172.524C22.7717 172.055 22.194 171.4 21.7773 170.557C21.3654 169.714 21.1594 168.729 21.1594 167.602C21.1594 166.466 21.3654 165.474 21.7773 164.626C22.194 163.779 22.7717 163.121 23.5103 162.652C24.2537 162.183 25.1178 161.949 26.1026 161.949C27.0875 161.949 27.9492 162.183 28.6879 162.652C29.4312 163.121 30.0089 163.779 30.4208 164.626C30.8375 165.474 31.0458 166.466 31.0458 167.602C31.0458 168.729 30.8375 169.714 30.4208 170.557C30.0089 171.4 29.4312 172.055 28.6879 172.524C27.9492 172.993 27.0875 173.227 26.1026 173.227ZM26.1026 171.722C26.8507 171.722 27.4663 171.53 27.9492 171.146C28.4322 170.763 28.7897 170.259 29.0217 169.634C29.2537 169.009 29.3697 168.331 29.3697 167.602C29.3697 166.873 29.2537 166.194 29.0217 165.564C28.7897 164.934 28.4322 164.425 27.9492 164.037C27.4663 163.649 26.8507 163.455 26.1026 163.455C25.3545 163.455 24.739 163.649 24.256 164.037C23.7731 164.425 23.4156 164.934 23.1836 165.564C22.9516 166.194 22.8356 166.873 22.8356 167.602C22.8356 168.331 22.9516 169.009 23.1836 169.634C23.4156 170.259 23.7731 170.763 24.256 171.146C24.739 171.53 25.3545 171.722 26.1026 171.722ZM40.3374 162.091V163.653H35.2805V173H33.6044V162.091H40.3374ZM46.6495 173.227C45.6647 173.227 44.8005 172.993 44.0572 172.524C43.3185 172.055 42.7409 171.4 42.3242 170.557C41.9123 169.714 41.7063 168.729 41.7063 167.602C41.7063 166.466 41.9123 165.474 42.3242 164.626C42.7409 163.779 43.3185 163.121 44.0572 162.652C44.8005 162.183 45.6647 161.949 46.6495 161.949C47.6344 161.949 48.4961 162.183 49.2347 162.652C49.9781 163.121 50.5558 163.779 50.9677 164.626C51.3844 165.474 51.5927 166.466 51.5927 167.602C51.5927 168.729 51.3844 169.714 50.9677 170.557C50.5558 171.4 49.9781 172.055 49.2347 172.524C48.4961 172.993 47.6344 173.227 46.6495 173.227ZM46.6495 171.722C47.3976 171.722 48.0131 171.53 48.4961 171.146C48.979 170.763 49.3365 170.259 49.5685 169.634C49.8005 169.009 49.9165 168.331 49.9165 167.602C49.9165 166.873 49.8005 166.194 49.5685 165.564C49.3365 164.934 48.979 164.425 48.4961 164.037C48.0131 163.649 47.3976 163.455 46.6495 163.455C45.9014 163.455 45.2859 163.649 44.8029 164.037C44.32 164.425 43.9625 164.934 43.7305 165.564C43.4985 166.194 43.3825 166.873 43.3825 167.602C43.3825 168.331 43.4985 169.009 43.7305 169.634C43.9625 170.259 44.32 170.763 44.8029 171.146C45.2859 171.53 45.9014 171.722 46.6495 171.722ZM66.5092 162.091V163.653H61.4524V173H59.7763V162.091H66.5092ZM72.8214 173.227C71.8365 173.227 70.9724 172.993 70.229 172.524C69.4904 172.055 68.9128 171.4 68.4961 170.557C68.0842 169.714 67.8782 168.729 67.8782 167.602C67.8782 166.466 68.0842 165.474 68.4961 164.626C68.9128 163.779 69.4904 163.121 70.229 162.652C70.9724 162.183 71.8365 161.949 72.8214 161.949C73.8062 161.949 74.668 162.183 75.4066 162.652C76.15 163.121 76.7276 163.779 77.1396 164.626C77.5562 165.474 77.7646 166.466 77.7646 167.602C77.7646 168.729 77.5562 169.714 77.1396 170.557C76.7276 171.4 76.15 172.055 75.4066 172.524C74.668 172.993 73.8062 173.227 72.8214 173.227ZM72.8214 171.722C73.5695 171.722 74.185 171.53 74.668 171.146C75.1509 170.763 75.5084 170.259 75.7404 169.634C75.9724 169.009 76.0884 168.331 76.0884 167.602C76.0884 166.873 75.9724 166.194 75.7404 165.564C75.5084 164.934 75.1509 164.425 74.668 164.037C74.185 163.649 73.5695 163.455 72.8214 163.455C72.0733 163.455 71.4577 163.649 70.9748 164.037C70.4918 164.425 70.1344 164.934 69.9023 165.564C69.6703 166.194 69.5543 166.873 69.5543 167.602C69.5543 168.331 69.6703 169.009 69.9023 169.634C70.1344 170.259 70.4918 170.763 70.9748 171.146C71.4577 171.53 72.0733 171.722 72.8214 171.722ZM79.1584 176.125V171.438H80.0675C80.29 171.205 80.4818 170.955 80.6428 170.685C80.8037 170.415 80.9434 170.095 81.0618 169.726C81.1849 169.352 81.2891 168.897 81.3743 168.362C81.4595 167.822 81.5353 167.171 81.6016 166.409L81.9709 162.091H88.9027V171.438H90.5788V176.125H88.9027V173H80.8345V176.125H79.1584ZM81.9709 171.438H87.2266V163.653H83.5334L83.2493 166.409C83.1309 167.55 82.9841 168.547 82.8089 169.399C82.6338 170.251 82.3544 170.931 81.9709 171.438ZM96.0138 173.256C95.3226 173.256 94.6952 173.125 94.1317 172.865C93.5683 172.6 93.1209 172.219 92.7894 171.722C92.458 171.22 92.2923 170.614 92.2923 169.903C92.2923 169.278 92.4154 168.772 92.6616 168.384C92.9078 167.991 93.2369 167.683 93.6488 167.46C94.0607 167.238 94.5153 167.072 95.0124 166.963C95.5143 166.849 96.0186 166.759 96.5252 166.693C97.1881 166.608 97.7255 166.544 98.1374 166.501C98.5541 166.454 98.8571 166.376 99.0465 166.267C99.2406 166.158 99.3377 165.969 99.3377 165.699V165.642C99.3377 164.941 99.146 164.397 98.7624 164.009C98.3836 163.62 97.8084 163.426 97.0366 163.426C96.2364 163.426 95.609 163.601 95.1545 163.952C94.6999 164.302 94.3803 164.676 94.1957 165.074L92.6048 164.506C92.8888 163.843 93.2676 163.327 93.7411 162.957C94.2193 162.583 94.7402 162.323 95.3036 162.176C95.8718 162.025 96.4305 161.949 96.9798 161.949C97.3301 161.949 97.7326 161.991 98.1871 162.077C98.6464 162.157 99.0891 162.325 99.5153 162.581C99.9461 162.837 100.304 163.223 100.588 163.739C100.872 164.255 101.014 164.946 101.014 165.812V173H99.3377V171.523H99.2525C99.1388 171.759 98.9495 172.013 98.6843 172.283C98.4192 172.553 98.0664 172.782 97.6261 172.972C97.1857 173.161 96.6483 173.256 96.0138 173.256ZM96.2695 171.75C96.9324 171.75 97.4911 171.62 97.9457 171.359C98.4049 171.099 98.7506 170.763 98.9826 170.351C99.2193 169.939 99.3377 169.506 99.3377 169.051V167.517C99.2667 167.602 99.1104 167.68 98.869 167.751C98.6322 167.818 98.3576 167.877 98.0451 167.929C97.7373 167.976 97.4367 168.019 97.1431 168.057C96.8543 168.09 96.6199 168.118 96.44 168.142C96.0044 168.199 95.5972 168.291 95.2184 168.419C94.8443 168.542 94.5413 168.729 94.3093 168.98C94.082 169.226 93.9684 169.562 93.9684 169.989C93.9684 170.571 94.1838 171.011 94.6147 171.31C95.0503 171.603 95.6019 171.75 96.2695 171.75Z" fill="white" fill-opacity="0.75"/>
<g clip-path="url(#clip0_200_14)">
<path d="M413.356 117.795C413.356 117.541 413.356 117.286 413.356 117.032V36.9676C413.356 36.7133 413.356 36.4589 413.356 36.2045C419.522 36.0753 424.448 31.6977 424.466 26.3316H424.447C424.437 20.8801 419.366 16.4603 413.1 16.4428H411.766C409.637 5.6693 397.874 -1.56287 385.491 0.289294C375.995 1.70981 368.557 8.18085 366.925 16.4428H365.591C359.316 16.5915 354.368 21.1376 354.538 26.5971C354.7 31.7617 359.404 35.9478 365.335 36.2045C365.335 36.4589 365.335 36.7133 365.335 36.9676V117.032C365.335 117.286 365.335 117.541 365.335 117.795C359.066 118.066 354.236 122.709 354.548 128.163C354.844 133.323 359.655 137.416 365.591 137.557H366.925C369.053 148.33 380.817 155.562 393.2 153.71C402.696 152.29 410.134 145.819 411.766 137.557H413.1C419.375 137.408 424.323 132.862 424.152 127.402C423.991 122.238 419.287 118.052 413.356 117.795ZM378.729 10.5763H378.765C384.634 5.47534 394.144 5.47932 400.007 10.5855C401.87 12.2075 403.209 14.2278 403.891 16.4428H374.837C375.518 14.2234 376.861 12.2 378.729 10.5763ZM361.936 26.2839C361.936 24.528 363.572 23.1043 365.591 23.1043H413.1C415.118 23.1456 416.715 24.6023 416.667 26.3579C416.646 27.1492 416.286 27.9052 415.658 28.4779L415.64 28.5415C414.959 29.1289 414.041 29.46 413.082 29.4636H365.591C363.572 29.4636 361.936 28.0403 361.936 26.2839ZM373.064 94.1859V82.2939L405.626 110.641V117C405.653 117.254 405.653 117.509 405.626 117.763H400.181L373.064 94.1859ZM389.181 117.795H373.137C373.11 117.541 373.11 117.286 373.137 117.032V103.709L389.181 117.795ZM405.626 59.8136V71.7215L373.064 43.3588V36.9994C373.037 36.7455 373.037 36.4903 373.064 36.2363H378.437L405.626 59.8136ZM389.437 36.2045H405.553C405.58 36.4585 405.58 36.7137 405.553 36.9676V50.2905L389.437 36.2045ZM405.626 81.2287V101.118L373.064 72.7708V52.8819L405.626 81.2287ZM399.998 143.423C394.13 148.524 384.62 148.52 378.757 143.414C376.894 141.792 375.555 139.772 374.873 137.557H403.854C403.172 139.776 401.83 141.8 399.962 143.423H399.998ZM415.589 129.939C414.92 130.501 414.03 130.821 413.1 130.832H365.591C363.572 130.832 361.936 129.408 361.936 127.652C361.936 125.896 363.572 124.473 365.591 124.473H413.1C414.063 124.497 414.976 124.851 415.64 125.458L415.676 125.442C417.079 126.705 417.041 128.718 415.589 129.939Z" fill="#D6A354"/>
</g>
<mask id="path-3-inside-1_200_14" fill="white">
<path d="M0 24H350V130H0V24Z"/>
</mask>
<path d="M0 24V29H350V24V19H0V24ZM350 130V125H0V130V135H350V130Z" fill="#D6A354" mask="url(#path-3-inside-1_200_14)"/>
<path d="M77.5227 92V62.9091H81.0455V75.8636H96.5568V62.9091H100.08V92H96.5568V78.9886H81.0455V92H77.5227ZM131.678 77.4545C131.678 80.5227 131.124 83.1742 130.016 85.4091C128.908 87.6439 127.388 89.3674 125.456 90.5795C123.524 91.7917 121.318 92.3977 118.837 92.3977C116.356 92.3977 114.149 91.7917 112.217 90.5795C110.286 89.3674 108.766 87.6439 107.658 85.4091C106.55 83.1742 105.996 80.5227 105.996 77.4545C105.996 74.3864 106.55 71.7348 107.658 69.5C108.766 67.2652 110.286 65.5417 112.217 64.3295C114.149 63.1174 116.356 62.5114 118.837 62.5114C121.318 62.5114 123.524 63.1174 125.456 64.3295C127.388 65.5417 128.908 67.2652 130.016 69.5C131.124 71.7348 131.678 74.3864 131.678 77.4545ZM128.268 77.4545C128.268 74.9356 127.847 72.8097 127.004 71.0767C126.171 69.3438 125.039 68.0322 123.609 67.142C122.189 66.2519 120.598 65.8068 118.837 65.8068C117.075 65.8068 115.48 66.2519 114.05 67.142C112.629 68.0322 111.498 69.3438 110.655 71.0767C109.821 72.8097 109.405 74.9356 109.405 77.4545C109.405 79.9735 109.821 82.0994 110.655 83.8324C111.498 85.5653 112.629 86.8769 114.05 87.767C115.48 88.6572 117.075 89.1023 118.837 89.1023C120.598 89.1023 122.189 88.6572 123.609 87.767C125.039 86.8769 126.171 85.5653 127.004 83.8324C127.847 82.0994 128.268 79.9735 128.268 77.4545ZM137.601 92V62.9091H147.771C149.798 62.9091 151.469 63.2595 152.786 63.9602C154.102 64.6515 155.082 65.5843 155.726 66.7585C156.37 67.9233 156.692 69.2159 156.692 70.6364C156.692 71.8864 156.469 72.9186 156.024 73.733C155.589 74.5473 155.011 75.1913 154.291 75.6648C153.581 76.1383 152.809 76.4886 151.976 76.7159V77C152.866 77.0568 153.761 77.3693 154.661 77.9375C155.56 78.5057 156.313 79.3201 156.919 80.3807C157.525 81.4413 157.828 82.7386 157.828 84.2727C157.828 85.7311 157.497 87.0426 156.834 88.2074C156.171 89.3722 155.125 90.2955 153.695 90.9773C152.265 91.6591 150.404 92 148.112 92H137.601ZM141.124 88.875H148.112C150.413 88.875 152.047 88.4299 153.013 87.5398C153.988 86.6402 154.476 85.5511 154.476 84.2727C154.476 83.2879 154.225 82.3788 153.723 81.5455C153.221 80.7027 152.506 80.0303 151.578 79.5284C150.65 79.017 149.552 78.7614 148.283 78.7614H141.124V88.875ZM141.124 75.6932H147.658C148.718 75.6932 149.675 75.4848 150.527 75.0682C151.389 74.6515 152.071 74.0644 152.572 73.3068C153.084 72.5492 153.339 71.6591 153.339 70.6364C153.339 69.358 152.894 68.2737 152.004 67.3835C151.114 66.4839 149.703 66.0341 147.771 66.0341H141.124V75.6932ZM188.162 77.4545C188.162 80.5227 187.608 83.1742 186.5 85.4091C185.392 87.6439 183.872 89.3674 181.94 90.5795C180.009 91.7917 177.802 92.3977 175.321 92.3977C172.84 92.3977 170.634 91.7917 168.702 90.5795C166.77 89.3674 165.25 87.6439 164.142 85.4091C163.034 83.1742 162.48 80.5227 162.48 77.4545C162.48 74.3864 163.034 71.7348 164.142 69.5C165.25 67.2652 166.77 65.5417 168.702 64.3295C170.634 63.1174 172.84 62.5114 175.321 62.5114C177.802 62.5114 180.009 63.1174 181.94 64.3295C183.872 65.5417 185.392 67.2652 186.5 69.5C187.608 71.7348 188.162 74.3864 188.162 77.4545ZM184.753 77.4545C184.753 74.9356 184.331 72.8097 183.489 71.0767C182.655 69.3438 181.524 68.0322 180.094 67.142C178.673 66.2519 177.082 65.8068 175.321 65.8068C173.56 65.8068 171.964 66.2519 170.534 67.142C169.114 68.0322 167.982 69.3438 167.139 71.0767C166.306 72.8097 165.889 74.9356 165.889 77.4545C165.889 79.9735 166.306 82.0994 167.139 83.8324C167.982 85.5653 169.114 86.8769 170.534 87.767C171.964 88.6572 173.56 89.1023 175.321 89.1023C177.082 89.1023 178.673 88.6572 180.094 87.767C181.524 86.8769 182.655 85.5653 183.489 83.8324C184.331 82.0994 184.753 79.9735 184.753 77.4545ZM217.494 72H213.972C213.763 70.9867 213.399 70.0966 212.878 69.3295C212.366 68.5625 211.741 67.9186 211.003 67.3977C210.274 66.8674 209.464 66.4697 208.574 66.2045C207.684 65.9394 206.756 65.8068 205.79 65.8068C204.028 65.8068 202.433 66.2519 201.003 67.142C199.582 68.0322 198.451 69.3438 197.608 71.0767C196.775 72.8097 196.358 74.9356 196.358 77.4545C196.358 79.9735 196.775 82.0994 197.608 83.8324C198.451 85.5653 199.582 86.8769 201.003 87.767C202.433 88.6572 204.028 89.1023 205.79 89.1023C206.756 89.1023 207.684 88.9697 208.574 88.7045C209.464 88.4394 210.274 88.0464 211.003 87.5256C211.741 86.9953 212.366 86.3466 212.878 85.5795C213.399 84.803 213.763 83.9129 213.972 82.9091H217.494C217.229 84.3958 216.746 85.7263 216.045 86.9006C215.345 88.0748 214.473 89.0739 213.432 89.8977C212.39 90.7121 211.221 91.3324 209.923 91.7585C208.635 92.1847 207.258 92.3977 205.79 92.3977C203.309 92.3977 201.102 91.7917 199.17 90.5795C197.239 89.3674 195.719 87.6439 194.611 85.4091C193.503 83.1742 192.949 80.5227 192.949 77.4545C192.949 74.3864 193.503 71.7348 194.611 69.5C195.719 67.2652 197.239 65.5417 199.17 64.3295C201.102 63.1174 203.309 62.5114 205.79 62.5114C207.258 62.5114 208.635 62.7244 209.923 63.1506C211.221 63.5767 212.39 64.2017 213.432 65.0256C214.473 65.84 215.345 66.8343 216.045 68.0085C216.746 69.1733 217.229 70.5038 217.494 72ZM221.596 66.0341V62.9091H243.414V66.0341H234.266V92H230.744V66.0341H221.596ZM248.851 62.9091H252.317V85.8068H252.601L268.51 62.9091H271.919V92H268.396V69.1591H268.112L252.26 92H248.851V62.9091Z" fill="white"/>
<defs>
<clipPath id="clip0_200_14">
<rect width="177" height="154" fill="white" transform="translate(301)"/>
</clipPath>
</defs>
</svg>
