<svg width="478" height="154" viewBox="0 0 478 154" fill="none" xmlns="http://www.w3.org/2000/svg">
<path d="M1.53409 149V138.091H10.1136V149H8.4375V139.653H3.21023V149H1.53409ZM17.7486 149.227C16.6974 149.227 15.7907 148.995 15.0284 148.531C14.2708 148.062 13.6861 147.409 13.2741 146.571C12.867 145.728 12.6634 144.748 12.6634 143.631C12.6634 142.513 12.867 141.528 13.2741 140.676C13.6861 139.819 14.259 139.152 14.9929 138.673C15.7315 138.19 16.5933 137.949 17.5781 137.949C18.1463 137.949 18.7074 138.044 19.2614 138.233C19.8153 138.422 20.3196 138.73 20.7741 139.156C21.2287 139.578 21.5909 140.136 21.8608 140.832C22.1307 141.528 22.2656 142.385 22.2656 143.403V144.114H13.8565V142.665H20.5611C20.5611 142.049 20.438 141.5 20.1918 141.017C19.9503 140.534 19.6046 140.153 19.1548 139.874C18.7098 139.594 18.1842 139.455 17.5781 139.455C16.9105 139.455 16.3329 139.62 15.8452 139.952C15.3622 140.278 14.9905 140.705 14.7301 141.23C14.4697 141.756 14.3395 142.319 14.3395 142.92V143.886C14.3395 144.71 14.4815 145.409 14.7656 145.982C15.0545 146.55 15.4545 146.983 15.9659 147.281C16.4773 147.575 17.0715 147.722 17.7486 147.722C18.1889 147.722 18.5866 147.66 18.9418 147.537C19.3016 147.409 19.6117 147.22 19.8722 146.969C20.1326 146.713 20.3338 146.396 20.4759 146.017L22.0952 146.472C21.9247 147.021 21.6383 147.504 21.2358 147.92C20.8333 148.332 20.3362 148.654 19.7443 148.886C19.1525 149.114 18.4872 149.227 17.7486 149.227ZM24.8153 153.091V138.091H26.4347V139.824H26.6335C26.7566 139.634 26.9271 139.393 27.1449 139.099C27.3674 138.801 27.6847 138.536 28.0966 138.304C28.5133 138.067 29.0767 137.949 29.7869 137.949C30.7055 137.949 31.5152 138.179 32.2159 138.638C32.9167 139.097 33.4635 139.748 33.8565 140.591C34.2495 141.434 34.446 142.428 34.446 143.574C34.446 144.729 34.2495 145.731 33.8565 146.578C33.4635 147.421 32.919 148.074 32.223 148.538C31.527 148.998 30.7244 149.227 29.8153 149.227C29.1146 149.227 28.5535 149.111 28.1321 148.879C27.7107 148.643 27.3864 148.375 27.1591 148.077C26.9318 147.774 26.7566 147.523 26.6335 147.324H26.4915V153.091H24.8153ZM26.4631 143.545C26.4631 144.369 26.5838 145.096 26.8253 145.726C27.0668 146.351 27.4195 146.841 27.8835 147.196C28.3475 147.546 28.9157 147.722 29.5881 147.722C30.2888 147.722 30.8736 147.537 31.3423 147.168C31.8158 146.794 32.1709 146.292 32.4077 145.662C32.6491 145.027 32.7699 144.322 32.7699 143.545C32.7699 142.778 32.6515 142.087 32.4148 141.472C32.1828 140.851 31.83 140.361 31.3565 140.001C30.8878 139.637 30.2983 139.455 29.5881 139.455C28.9063 139.455 28.3333 139.627 27.8693 139.973C27.4053 140.314 27.0549 140.792 26.8182 141.408C26.5814 142.018 26.4631 142.731 26.4631 143.545ZM41.5767 149.227C40.5256 149.227 39.6188 148.995 38.8565 148.531C38.099 148.062 37.5142 147.409 37.1023 146.571C36.6951 145.728 36.4915 144.748 36.4915 143.631C36.4915 142.513 36.6951 141.528 37.1023 140.676C37.5142 139.819 38.0871 139.152 38.821 138.673C39.5597 138.19 40.4214 137.949 41.4062 137.949C41.9744 137.949 42.5355 138.044 43.0895 138.233C43.6435 138.422 44.1477 138.73 44.6023 139.156C45.0568 139.578 45.419 140.136 45.6889 140.832C45.9588 141.528 46.0938 142.385 46.0938 143.403V144.114H37.6847V142.665H44.3892C44.3892 142.049 44.2661 141.5 44.0199 141.017C43.7784 140.534 43.4328 140.153 42.983 139.874C42.5379 139.594 42.0123 139.455 41.4062 139.455C40.7386 139.455 40.161 139.62 39.6733 139.952C39.1903 140.278 38.8187 140.705 38.5582 141.23C38.2978 141.756 38.1676 142.319 38.1676 142.92V143.886C38.1676 144.71 38.3097 145.409 38.5938 145.982C38.8826 146.55 39.2827 146.983 39.794 147.281C40.3054 147.575 40.8996 147.722 41.5767 147.722C42.017 147.722 42.4148 147.66 42.7699 147.537C43.1297 147.409 43.4399 147.22 43.7003 146.969C43.9607 146.713 44.1619 146.396 44.304 146.017L45.9233 146.472C45.7528 147.021 45.4664 147.504 45.0639 147.92C44.6615 148.332 44.1643 148.654 43.5724 148.886C42.9806 149.114 42.3153 149.227 41.5767 149.227ZM57.0526 138.091V149H55.3764V138.091H57.0526ZM56.3991 143.29V144.852C56.0204 144.994 55.6439 145.12 55.2699 145.229C54.8958 145.333 54.5028 145.416 54.0909 145.477C53.679 145.534 53.2268 145.562 52.7344 145.562C51.4986 145.562 50.5066 145.229 49.7585 144.561C49.0152 143.893 48.6435 142.892 48.6435 141.557V138.062H50.3196V141.557C50.3196 142.116 50.4261 142.575 50.6392 142.935C50.8523 143.295 51.1411 143.562 51.5057 143.737C51.8703 143.912 52.2798 144 52.7344 144C53.4446 144 54.0862 143.936 54.6591 143.808C55.2367 143.676 55.8168 143.503 56.3991 143.29ZM64.7017 149.227C63.6506 149.227 62.7438 148.995 61.9815 148.531C61.224 148.062 60.6392 147.409 60.2273 146.571C59.8201 145.728 59.6165 144.748 59.6165 143.631C59.6165 142.513 59.8201 141.528 60.2273 140.676C60.6392 139.819 61.2121 139.152 61.946 138.673C62.6847 138.19 63.5464 137.949 64.5312 137.949C65.0994 137.949 65.6605 138.044 66.2145 138.233C66.7685 138.422 67.2727 138.73 67.7273 139.156C68.1818 139.578 68.544 140.136 68.8139 140.832C69.0838 141.528 69.2188 142.385 69.2188 143.403V144.114H60.8097V142.665H67.5142C67.5142 142.049 67.3911 141.5 67.1449 141.017C66.9034 140.534 66.5578 140.153 66.108 139.874C65.6629 139.594 65.1373 139.455 64.5312 139.455C63.8636 139.455 63.286 139.62 62.7983 139.952C62.3153 140.278 61.9437 140.705 61.6832 141.23C61.4228 141.756 61.2926 142.319 61.2926 142.92V143.886C61.2926 144.71 61.4347 145.409 61.7188 145.982C62.0076 146.55 62.4077 146.983 62.919 147.281C63.4304 147.575 64.0246 147.722 64.7017 147.722C65.142 147.722 65.5398 147.66 65.8949 147.537C66.2547 147.409 66.5649 147.22 66.8253 146.969C67.0857 146.713 67.2869 146.396 67.429 146.017L69.0483 146.472C68.8778 147.021 68.5914 147.504 68.1889 147.92C67.7865 148.332 67.2893 148.654 66.6974 148.886C66.1056 149.114 65.4403 149.227 64.7017 149.227ZM79.0696 142.778V144.341H73.0469V142.778H79.0696ZM73.4446 138.091V149H71.7685V138.091H73.4446ZM80.348 138.091V149H78.6719V138.091H80.348ZM84.858 142.04H87.983C89.2614 142.04 90.2391 142.364 90.9162 143.013C91.5933 143.661 91.9318 144.483 91.9318 145.477C91.9318 146.131 91.7803 146.725 91.4773 147.26C91.1742 147.79 90.7292 148.214 90.142 148.531C89.5549 148.844 88.8352 149 87.983 149H83.4091V138.091H85.0852V147.438H87.983C88.6458 147.438 89.1903 147.262 89.6165 146.912C90.0426 146.562 90.2557 146.112 90.2557 145.562C90.2557 144.985 90.0426 144.514 89.6165 144.149C89.1903 143.785 88.6458 143.602 87.983 143.602H84.858V142.04ZM104.54 149.227C103.555 149.227 102.691 148.993 101.948 148.524C101.209 148.055 100.632 147.4 100.215 146.557C99.8029 145.714 99.5969 144.729 99.5969 143.602C99.5969 142.466 99.8029 141.474 100.215 140.626C100.632 139.779 101.209 139.121 101.948 138.652C102.691 138.183 103.555 137.949 104.54 137.949C105.525 137.949 106.387 138.183 107.125 138.652C107.869 139.121 108.446 139.779 108.858 140.626C109.275 141.474 109.483 142.466 109.483 143.602C109.483 144.729 109.275 145.714 108.858 146.557C108.446 147.4 107.869 148.055 107.125 148.524C106.387 148.993 105.525 149.227 104.54 149.227ZM104.54 147.722C105.288 147.722 105.904 147.53 106.387 147.146C106.87 146.763 107.227 146.259 107.459 145.634C107.691 145.009 107.807 144.331 107.807 143.602C107.807 142.873 107.691 142.194 107.459 141.564C107.227 140.934 106.87 140.425 106.387 140.037C105.904 139.649 105.288 139.455 104.54 139.455C103.792 139.455 103.176 139.649 102.694 140.037C102.211 140.425 101.853 140.934 101.621 141.564C101.389 142.194 101.273 142.873 101.273 143.602C101.273 144.331 101.389 145.009 101.621 145.634C101.853 146.259 102.211 146.763 102.694 147.146C103.176 147.53 103.792 147.722 104.54 147.722ZM116.474 149.227C115.451 149.227 114.57 148.986 113.832 148.503C113.093 148.02 112.525 147.355 112.127 146.507C111.729 145.66 111.531 144.691 111.531 143.602C111.531 142.494 111.734 141.517 112.141 140.669C112.553 139.817 113.126 139.152 113.86 138.673C114.599 138.19 115.46 137.949 116.445 137.949C117.212 137.949 117.904 138.091 118.519 138.375C119.135 138.659 119.639 139.057 120.032 139.568C120.425 140.08 120.669 140.676 120.763 141.358H119.087C118.96 140.861 118.675 140.42 118.235 140.037C117.799 139.649 117.212 139.455 116.474 139.455C115.82 139.455 115.247 139.625 114.755 139.966C114.267 140.302 113.886 140.778 113.612 141.393C113.342 142.004 113.207 142.722 113.207 143.545C113.207 144.388 113.339 145.122 113.604 145.747C113.874 146.372 114.253 146.857 114.741 147.203C115.233 147.549 115.811 147.722 116.474 147.722C116.909 147.722 117.305 147.646 117.66 147.494C118.015 147.343 118.316 147.125 118.562 146.841C118.808 146.557 118.983 146.216 119.087 145.818H120.763C120.669 146.462 120.434 147.042 120.06 147.558C119.691 148.07 119.201 148.477 118.59 148.78C117.984 149.078 117.279 149.227 116.474 149.227ZM130.515 142.778V144.341H124.492V142.778H130.515ZM124.89 138.091V149H123.214V138.091H124.89ZM131.793 138.091V149H130.117V138.091H131.793ZM139.286 149.227C138.301 149.227 137.437 148.993 136.694 148.524C135.955 148.055 135.378 147.4 134.961 146.557C134.549 145.714 134.343 144.729 134.343 143.602C134.343 142.466 134.549 141.474 134.961 140.626C135.378 139.779 135.955 139.121 136.694 138.652C137.437 138.183 138.301 137.949 139.286 137.949C140.271 137.949 141.133 138.183 141.871 138.652C142.615 139.121 143.192 139.779 143.604 140.626C144.021 141.474 144.229 142.466 144.229 143.602C144.229 144.729 144.021 145.714 143.604 146.557C143.192 147.4 142.615 148.055 141.871 148.524C141.133 148.993 140.271 149.227 139.286 149.227ZM139.286 147.722C140.034 147.722 140.65 147.53 141.133 147.146C141.616 146.763 141.973 146.259 142.205 145.634C142.437 145.009 142.553 144.331 142.553 143.602C142.553 142.873 142.437 142.194 142.205 141.564C141.973 140.934 141.616 140.425 141.133 140.037C140.65 139.649 140.034 139.455 139.286 139.455C138.538 139.455 137.923 139.649 137.44 140.037C136.957 140.425 136.599 140.934 136.367 141.564C136.135 142.194 136.019 142.873 136.019 143.602C136.019 144.331 136.135 145.009 136.367 145.634C136.599 146.259 136.957 146.763 137.44 147.146C137.923 147.53 138.538 147.722 139.286 147.722ZM146.788 149V138.091H151.248C152.422 138.091 153.355 138.356 154.047 138.886C154.738 139.417 155.083 140.117 155.083 140.989C155.083 141.652 154.887 142.165 154.494 142.53C154.101 142.89 153.597 143.134 152.981 143.261C153.384 143.318 153.774 143.46 154.153 143.688C154.537 143.915 154.854 144.227 155.105 144.625C155.356 145.018 155.481 145.501 155.481 146.074C155.481 146.633 155.339 147.132 155.055 147.572C154.771 148.013 154.364 148.361 153.833 148.616C153.303 148.872 152.669 149 151.93 149H146.788ZM148.379 147.466H151.93C152.508 147.466 152.96 147.329 153.287 147.054C153.613 146.779 153.777 146.405 153.777 145.932C153.777 145.368 153.613 144.926 153.287 144.604C152.96 144.277 152.508 144.114 151.93 144.114H148.379V147.466ZM148.379 142.665H151.248C151.698 142.665 152.084 142.603 152.406 142.48C152.728 142.352 152.974 142.172 153.145 141.94C153.32 141.704 153.407 141.424 153.407 141.102C153.407 140.643 153.216 140.283 152.832 140.023C152.449 139.758 151.921 139.625 151.248 139.625H148.379V142.665ZM165.32 142.778V144.341H159.297V142.778H165.32ZM159.695 138.091V149H158.018V138.091H159.695ZM166.598 138.091V149H164.922V138.091H166.598ZM171.108 142.04H174.233C175.511 142.04 176.489 142.364 177.166 143.013C177.843 143.661 178.182 144.483 178.182 145.477C178.182 146.131 178.03 146.725 177.727 147.26C177.424 147.79 176.979 148.214 176.392 148.531C175.805 148.844 175.085 149 174.233 149H169.659V138.091H171.335V147.438H174.233C174.896 147.438 175.44 147.262 175.866 146.912C176.293 146.562 176.506 146.112 176.506 145.562C176.506 144.985 176.293 144.514 175.866 144.149C175.44 143.785 174.896 143.602 174.233 143.602H171.108V142.04ZM179.915 149V138.091H181.591V149H179.915ZM185.909 138.091L188.523 142.551L191.136 138.091H193.068L189.545 143.545L193.068 149H191.136L188.523 144.767L185.909 149H183.977L187.443 143.545L183.977 138.091H185.909ZM202.164 153.091C201.88 153.091 201.627 153.067 201.404 153.02C201.182 152.977 201.028 152.935 200.943 152.892L201.369 151.415C201.776 151.519 202.136 151.557 202.449 151.528C202.761 151.5 203.038 151.36 203.279 151.109C203.526 150.863 203.751 150.463 203.954 149.909L204.267 149.057L200.233 138.091H202.051L205.062 146.784H205.176L208.187 138.091H210.005L205.375 150.591C205.166 151.154 204.908 151.621 204.6 151.99C204.293 152.364 203.935 152.641 203.528 152.821C203.126 153.001 202.671 153.091 202.164 153.091ZM216.259 149.227C215.236 149.227 214.355 148.986 213.617 148.503C212.878 148.02 212.31 147.355 211.912 146.507C211.515 145.66 211.316 144.691 211.316 143.602C211.316 142.494 211.519 141.517 211.926 140.669C212.338 139.817 212.911 139.152 213.645 138.673C214.384 138.19 215.246 137.949 216.23 137.949C216.998 137.949 217.689 138.091 218.304 138.375C218.92 138.659 219.424 139.057 219.817 139.568C220.21 140.08 220.454 140.676 220.549 141.358H218.873C218.745 140.861 218.461 140.42 218.02 140.037C217.585 139.649 216.998 139.455 216.259 139.455C215.605 139.455 215.033 139.625 214.54 139.966C214.052 140.302 213.671 140.778 213.397 141.393C213.127 142.004 212.992 142.722 212.992 143.545C212.992 144.388 213.124 145.122 213.39 145.747C213.659 146.372 214.038 146.857 214.526 147.203C215.018 147.549 215.596 147.722 216.259 147.722C216.694 147.722 217.09 147.646 217.445 147.494C217.8 147.343 218.101 147.125 218.347 146.841C218.593 146.557 218.768 146.216 218.873 145.818H220.549C220.454 146.462 220.22 147.042 219.846 147.558C219.476 148.07 218.986 148.477 218.375 148.78C217.769 149.078 217.064 149.227 216.259 149.227ZM222.033 149V147.438H222.431C222.757 147.438 223.03 147.374 223.248 147.246C223.465 147.113 223.641 146.884 223.773 146.557C223.91 146.225 224.015 145.766 224.086 145.179C224.161 144.587 224.216 143.834 224.249 142.92L224.448 138.091H231.721V149H230.044V139.653H226.039L225.868 143.545C225.83 144.44 225.75 145.229 225.627 145.911C225.508 146.588 225.326 147.156 225.08 147.615C224.838 148.074 224.516 148.42 224.114 148.652C223.712 148.884 223.207 149 222.601 149H222.033ZM235.485 153.091C235.201 153.091 234.947 153.067 234.725 153.02C234.502 152.977 234.348 152.935 234.263 152.892L234.689 151.415C235.096 151.519 235.456 151.557 235.769 151.528C236.081 151.5 236.358 151.36 236.6 151.109C236.846 150.863 237.071 150.463 237.275 149.909L237.587 149.057L233.553 138.091H235.371L238.382 146.784H238.496L241.507 138.091H243.326L238.695 150.591C238.487 151.154 238.229 151.621 237.921 151.99C237.613 152.364 237.256 152.641 236.848 152.821C236.446 153.001 235.991 153.091 235.485 153.091ZM252.271 138.091V139.653H247.214V149H245.538V138.091H252.271Z" fill="white" fill-opacity="0.75"/>
<g clip-path="url(#clip0_200_5)">
<path d="M413.356 117.795C413.356 117.541 413.356 117.286 413.356 117.032V36.9676C413.356 36.7133 413.356 36.4589 413.356 36.2045C419.522 36.0753 424.448 31.6977 424.466 26.3316H424.447C424.437 20.8801 419.366 16.4603 413.1 16.4428H411.766C409.637 5.6693 397.874 -1.56287 385.491 0.289294C375.995 1.70981 368.557 8.18085 366.925 16.4428H365.591C359.316 16.5915 354.368 21.1376 354.538 26.5971C354.7 31.7617 359.404 35.9478 365.335 36.2045C365.335 36.4589 365.335 36.7133 365.335 36.9676V117.032C365.335 117.286 365.335 117.541 365.335 117.795C359.066 118.066 354.237 122.709 354.549 128.163C354.844 133.323 359.655 137.416 365.591 137.557H366.925C369.053 148.33 380.817 155.562 393.2 153.71C402.696 152.29 410.134 145.819 411.766 137.557H413.1C419.375 137.408 424.323 132.862 424.152 127.402C423.991 122.238 419.287 118.052 413.356 117.795ZM378.729 10.5763H378.765C384.634 5.47534 394.144 5.47932 400.007 10.5855C401.87 12.2075 403.209 14.2278 403.891 16.4428H374.837C375.518 14.2234 376.861 12.2 378.729 10.5763ZM361.936 26.2839C361.936 24.528 363.573 23.1043 365.591 23.1043H413.1C415.118 23.1456 416.715 24.6023 416.667 26.3579C416.646 27.1492 416.286 27.9052 415.658 28.4779L415.64 28.5415C414.959 29.1289 414.041 29.46 413.082 29.4636H365.591C363.573 29.4636 361.936 28.0403 361.936 26.2839ZM373.064 94.1859V82.2939L405.626 110.641V117C405.653 117.254 405.653 117.509 405.626 117.763H400.181L373.064 94.1859ZM389.181 117.795H373.137C373.11 117.541 373.11 117.286 373.137 117.032V103.709L389.181 117.795ZM405.626 59.8136V71.7215L373.064 43.3588V36.9994C373.037 36.7455 373.037 36.4903 373.064 36.2363H378.437L405.626 59.8136ZM389.437 36.2045H405.553C405.58 36.4585 405.58 36.7137 405.553 36.9676V50.2905L389.437 36.2045ZM405.626 81.2287V101.118L373.064 72.7708V52.8819L405.626 81.2287ZM399.998 143.423C394.13 148.524 384.62 148.52 378.757 143.414C376.894 141.792 375.555 139.772 374.873 137.557H403.854C403.172 139.776 401.83 141.8 399.962 143.423H399.998ZM415.589 129.939C414.921 130.501 414.03 130.821 413.1 130.832H365.591C363.573 130.832 361.936 129.408 361.936 127.652C361.936 125.896 363.573 124.473 365.591 124.473H413.1C414.063 124.497 414.976 124.851 415.64 125.458L415.677 125.442C417.079 126.705 417.041 128.718 415.589 129.939Z" fill="#D6A354"/>
</g>
<mask id="path-3-inside-1_200_5" fill="white">
<path d="M0 24H350V130H0V24Z"/>
</mask>
<path d="M0 24V29H350V24V19H0V24ZM350 130V125H0V130V135H350V130Z" fill="#D6A354" mask="url(#path-3-inside-1_200_5)"/>
<path d="M100.057 92.3977V89.1023H101.875C102.576 89.1023 103.163 88.965 103.636 88.6903C104.119 88.4157 104.517 88.0606 104.83 87.625C105.152 87.1894 105.417 86.7348 105.625 86.2614L106.08 85.1818L96.0227 62.9091H99.8295L107.841 80.9773L115.17 62.9091H118.92L108.864 87.2841C108.466 88.1932 108.011 89.036 107.5 89.8125C106.998 90.589 106.312 91.214 105.44 91.6875C104.579 92.161 103.409 92.3977 101.932 92.3977H100.057ZM145.526 72H142.003C141.795 70.9867 141.43 70.0966 140.909 69.3295C140.398 68.5625 139.773 67.9186 139.034 67.3977C138.305 66.8674 137.495 66.4697 136.605 66.2045C135.715 65.9394 134.787 65.8068 133.821 65.8068C132.06 65.8068 130.464 66.2519 129.034 67.142C127.614 68.0322 126.482 69.3438 125.639 71.0767C124.806 72.8097 124.389 74.9356 124.389 77.4545C124.389 79.9735 124.806 82.0994 125.639 83.8324C126.482 85.5653 127.614 86.8769 129.034 87.767C130.464 88.6572 132.06 89.1023 133.821 89.1023C134.787 89.1023 135.715 88.9697 136.605 88.7045C137.495 88.4394 138.305 88.0464 139.034 87.5256C139.773 86.9953 140.398 86.3466 140.909 85.5795C141.43 84.803 141.795 83.9129 142.003 82.9091H145.526C145.26 84.3958 144.777 85.7263 144.077 86.9006C143.376 88.0748 142.505 89.0739 141.463 89.8977C140.421 90.7121 139.252 91.3324 137.955 91.7585C136.667 92.1847 135.289 92.3977 133.821 92.3977C131.34 92.3977 129.134 91.7917 127.202 90.5795C125.27 89.3674 123.75 87.6439 122.642 85.4091C121.534 83.1742 120.98 80.5227 120.98 77.4545C120.98 74.3864 121.534 71.7348 122.642 69.5C123.75 67.2652 125.27 65.5417 127.202 64.3295C129.134 63.1174 131.34 62.5114 133.821 62.5114C135.289 62.5114 136.667 62.7244 137.955 63.1506C139.252 63.5767 140.421 64.2017 141.463 65.0256C142.505 65.84 143.376 66.8343 144.077 68.0085C144.777 69.1733 145.26 70.5038 145.526 72ZM148.718 92V88.7614H149.57C150.782 88.7614 151.725 88.3731 152.397 87.5966C153.069 86.8201 153.552 85.5653 153.846 83.8324C154.149 82.0994 154.353 79.803 154.457 76.9432L154.968 62.9091H172.695V92H169.173V66.0341H158.32L157.866 77.625C157.752 80.6742 157.473 83.2689 157.028 85.4091C156.583 87.5492 155.801 89.1828 154.684 90.3097C153.567 91.4366 151.938 92 149.798 92H148.718ZM181.268 92.3977V89.1023H183.086C183.787 89.1023 184.374 88.965 184.847 88.6903C185.33 88.4157 185.728 88.0606 186.04 87.625C186.362 87.1894 186.628 86.7348 186.836 86.2614L187.29 85.1818L177.234 62.9091H181.04L189.052 80.9773L196.381 62.9091H200.131L190.075 87.2841C189.677 88.1932 189.222 89.036 188.711 89.8125C188.209 90.589 187.522 91.214 186.651 91.6875C185.79 92.161 184.62 92.3977 183.143 92.3977H181.268ZM222.251 62.9091V66.0341H208.217V92H204.695V62.9091H222.251ZM227.702 62.9091H231.168V85.8068H231.452L247.362 62.9091H250.771V92H247.248V69.1591H246.964L231.112 92H227.702V62.9091Z" fill="white"/>
<defs>
<clipPath id="clip0_200_5">
<rect width="177" height="154" fill="white" transform="translate(301)"/>
</clipPath>
</defs>
</svg>
