<svg width="478" height="178" viewBox="0 0 478 178" fill="none" xmlns="http://www.w3.org/2000/svg">
<path d="M0.852273 146.216H2.64205C2.67992 146.708 2.90246 147.082 3.30966 147.338C3.72159 147.594 4.25663 147.722 4.91477 147.722C5.58712 147.722 6.16241 147.584 6.64062 147.31C7.11884 147.03 7.35795 146.58 7.35795 145.96C7.35795 145.596 7.26799 145.278 7.08807 145.009C6.90814 144.734 6.65483 144.521 6.32812 144.369C6.00142 144.218 5.61553 144.142 5.17045 144.142H3.29545V142.636H5.17045C5.83807 142.636 6.33049 142.485 6.64773 142.182C6.9697 141.879 7.13068 141.5 7.13068 141.045C7.13068 140.558 6.95786 140.167 6.61222 139.874C6.26657 139.575 5.77652 139.426 5.14205 139.426C4.50284 139.426 3.97017 139.571 3.54403 139.859C3.1179 140.143 2.89299 140.51 2.86932 140.96H1.10795C1.12689 140.373 1.30682 139.855 1.64773 139.405C1.98864 138.95 2.45265 138.595 3.03977 138.339C3.62689 138.079 4.29924 137.949 5.05682 137.949C5.82386 137.949 6.48911 138.084 7.05256 138.354C7.62074 138.619 8.05871 138.981 8.36648 139.44C8.67898 139.895 8.83523 140.411 8.83523 140.989C8.83523 141.604 8.66241 142.101 8.31676 142.48C7.97112 142.859 7.53788 143.129 7.01705 143.29V143.403C7.42898 143.432 7.78646 143.564 8.08949 143.801C8.39725 144.033 8.63636 144.339 8.80682 144.717C8.97727 145.091 9.0625 145.506 9.0625 145.96C9.0625 146.623 8.88494 147.201 8.52983 147.693C8.17472 148.181 7.68703 148.56 7.06676 148.83C6.4465 149.095 5.73864 149.227 4.94318 149.227C4.1714 149.227 3.48011 149.102 2.86932 148.851C2.25852 148.595 1.7732 148.242 1.41335 147.793C1.05824 147.338 0.871212 146.812 0.852273 146.216ZM14.6271 149.256C13.9358 149.256 13.3085 149.125 12.745 148.865C12.1816 148.6 11.7341 148.219 11.4027 147.722C11.0713 147.22 10.9055 146.614 10.9055 145.903C10.9055 145.278 11.0286 144.772 11.2749 144.384C11.5211 143.991 11.8501 143.683 12.2621 143.46C12.674 143.238 13.1286 143.072 13.6257 142.963C14.1276 142.849 14.6319 142.759 15.1385 142.693C15.8014 142.608 16.3388 142.544 16.7507 142.501C17.1674 142.454 17.4704 142.376 17.6598 142.267C17.8539 142.158 17.951 141.969 17.951 141.699V141.642C17.951 140.941 17.7592 140.397 17.3757 140.009C16.9969 139.62 16.4216 139.426 15.6499 139.426C14.8497 139.426 14.2223 139.601 13.7678 139.952C13.3132 140.302 12.9936 140.676 12.8089 141.074L11.218 140.506C11.5021 139.843 11.8809 139.327 12.3544 138.957C12.8326 138.583 13.3535 138.323 13.9169 138.176C14.4851 138.025 15.0438 137.949 15.593 137.949C15.9434 137.949 16.3459 137.991 16.8004 138.077C17.2597 138.157 17.7024 138.325 18.1286 138.581C18.5594 138.837 18.9169 139.223 19.201 139.739C19.4851 140.255 19.6271 140.946 19.6271 141.812V149H17.951V147.523H17.8658C17.7521 147.759 17.5627 148.013 17.2976 148.283C17.0324 148.553 16.6797 148.782 16.2393 148.972C15.799 149.161 15.2616 149.256 14.6271 149.256ZM14.8828 147.75C15.5457 147.75 16.1044 147.62 16.5589 147.359C17.0182 147.099 17.3639 146.763 17.5959 146.351C17.8326 145.939 17.951 145.506 17.951 145.051V143.517C17.88 143.602 17.7237 143.68 17.4822 143.751C17.2455 143.818 16.9709 143.877 16.6584 143.929C16.3506 143.976 16.05 144.019 15.7564 144.057C15.4676 144.09 15.2332 144.118 15.0533 144.142C14.6177 144.199 14.2105 144.291 13.8317 144.419C13.4576 144.542 13.1546 144.729 12.9226 144.98C12.6953 145.226 12.5817 145.562 12.5817 145.989C12.5817 146.571 12.7971 147.011 13.228 147.31C13.6636 147.603 14.2152 147.75 14.8828 147.75ZM22.6864 149V138.091H31.266V149H29.5898V139.653H24.3626V149H22.6864ZM38.7589 149.227C37.774 149.227 36.9099 148.993 36.1665 148.524C35.4279 148.055 34.8503 147.4 34.4336 146.557C34.0217 145.714 33.8157 144.729 33.8157 143.602C33.8157 142.466 34.0217 141.474 34.4336 140.626C34.8503 139.779 35.4279 139.121 36.1665 138.652C36.9099 138.183 37.774 137.949 38.7589 137.949C39.7437 137.949 40.6055 138.183 41.3441 138.652C42.0875 139.121 42.6651 139.779 43.0771 140.626C43.4937 141.474 43.7021 142.466 43.7021 143.602C43.7021 144.729 43.4937 145.714 43.0771 146.557C42.6651 147.4 42.0875 148.055 41.3441 148.524C40.6055 148.993 39.7437 149.227 38.7589 149.227ZM38.7589 147.722C39.507 147.722 40.1225 147.53 40.6055 147.146C41.0884 146.763 41.4459 146.259 41.6779 145.634C41.9099 145.009 42.0259 144.331 42.0259 143.602C42.0259 142.873 41.9099 142.194 41.6779 141.564C41.4459 140.934 41.0884 140.425 40.6055 140.037C40.1225 139.649 39.507 139.455 38.7589 139.455C38.0108 139.455 37.3952 139.649 36.9123 140.037C36.4293 140.425 36.0719 140.934 35.8398 141.564C35.6078 142.194 35.4918 142.873 35.4918 143.602C35.4918 144.331 35.6078 145.009 35.8398 145.634C36.0719 146.259 36.4293 146.763 36.9123 147.146C37.3952 147.53 38.0108 147.722 38.7589 147.722ZM45.2947 149V147.438H45.6925C46.0192 147.438 46.2914 147.374 46.5092 147.246C46.727 147.113 46.9022 146.884 47.0348 146.557C47.1721 146.225 47.2763 145.766 47.3473 145.179C47.4231 144.587 47.4775 143.834 47.5107 142.92L47.7095 138.091H54.9822V149H53.3061V139.653H49.3004L49.13 143.545C49.0921 144.44 49.0116 145.229 48.8885 145.911C48.7701 146.588 48.5878 147.156 48.3416 147.615C48.1001 148.074 47.7782 148.42 47.3757 148.652C46.9732 148.884 46.469 149 45.8629 149H45.2947ZM65.3587 142.778V144.341H59.3359V142.778H65.3587ZM59.7337 138.091V149H58.0575V138.091H59.7337ZM66.6371 138.091V149H64.9609V138.091H66.6371ZM71.3743 146.528L76.63 138.091H78.5618V149H76.8857V140.562L71.6584 149H69.6982V138.091H71.3743V146.528ZM91.6886 152.722V134.455H93.3647V152.722H91.6886ZM91.6886 149.227C90.9499 149.227 90.2776 149.095 89.6715 148.83C89.0655 148.56 88.5446 148.179 88.109 147.686C87.6734 147.189 87.3372 146.595 87.1005 145.903C86.8638 145.212 86.7454 144.445 86.7454 143.602C86.7454 142.75 86.8638 141.978 87.1005 141.287C87.3372 140.591 87.6734 139.994 88.109 139.497C88.5446 139 89.0655 138.619 89.6715 138.354C90.2776 138.084 90.9499 137.949 91.6886 137.949H92.1999V149.227H91.6886ZM91.6886 147.722H91.9727V139.455H91.6886C91.1299 139.455 90.6445 139.568 90.2326 139.795C89.8207 140.018 89.4798 140.323 89.2099 140.712C88.9447 141.095 88.7459 141.536 88.6133 142.033C88.4854 142.53 88.4215 143.053 88.4215 143.602C88.4215 144.331 88.5375 145.009 88.7695 145.634C89.0015 146.259 89.359 146.763 89.842 147.146C90.3249 147.53 90.9405 147.722 91.6886 147.722ZM93.3647 149.227H92.8533V137.949H93.3647C94.1033 137.949 94.7757 138.084 95.3817 138.354C95.9878 138.619 96.5086 139 96.9442 139.497C97.3799 139.994 97.716 140.591 97.9528 141.287C98.1895 141.978 98.3079 142.75 98.3079 143.602C98.3079 144.445 98.1895 145.212 97.9528 145.903C97.716 146.595 97.3799 147.189 96.9442 147.686C96.5086 148.179 95.9878 148.56 95.3817 148.83C94.7757 149.095 94.1033 149.227 93.3647 149.227ZM93.3647 147.722C93.9281 147.722 94.4135 147.613 94.8207 147.395C95.2326 147.172 95.5711 146.869 95.8363 146.486C96.1062 146.098 96.305 145.657 96.4329 145.165C96.5655 144.668 96.6317 144.147 96.6317 143.602C96.6317 142.873 96.5157 142.194 96.2837 141.564C96.0517 140.934 95.6942 140.425 95.2113 140.037C94.7283 139.649 94.1128 139.455 93.3647 139.455H93.0806V147.722H93.3647ZM105.302 149.227C104.317 149.227 103.453 148.993 102.71 148.524C101.971 148.055 101.393 147.4 100.977 146.557C100.565 145.714 100.359 144.729 100.359 143.602C100.359 142.466 100.565 141.474 100.977 140.626C101.393 139.779 101.971 139.121 102.71 138.652C103.453 138.183 104.317 137.949 105.302 137.949C106.287 137.949 107.148 138.183 107.887 138.652C108.63 139.121 109.208 139.779 109.62 140.626C110.037 141.474 110.245 142.466 110.245 143.602C110.245 144.729 110.037 145.714 109.62 146.557C109.208 147.4 108.63 148.055 107.887 148.524C107.148 148.993 106.287 149.227 105.302 149.227ZM105.302 147.722C106.05 147.722 106.665 147.53 107.148 147.146C107.631 146.763 107.989 146.259 108.221 145.634C108.453 145.009 108.569 144.331 108.569 143.602C108.569 142.873 108.453 142.194 108.221 141.564C107.989 140.934 107.631 140.425 107.148 140.037C106.665 139.649 106.05 139.455 105.302 139.455C104.554 139.455 103.938 139.649 103.455 140.037C102.972 140.425 102.615 140.934 102.383 141.564C102.151 142.194 102.035 142.873 102.035 143.602C102.035 144.331 102.151 145.009 102.383 145.634C102.615 146.259 102.972 146.763 103.455 147.146C103.938 147.53 104.554 147.722 105.302 147.722ZM112.804 153.091V138.091H114.423V139.824H114.622C114.745 139.634 114.915 139.393 115.133 139.099C115.356 138.801 115.673 138.536 116.085 138.304C116.502 138.067 117.065 137.949 117.775 137.949C118.694 137.949 119.503 138.179 120.204 138.638C120.905 139.097 121.452 139.748 121.845 140.591C122.238 141.434 122.434 142.428 122.434 143.574C122.434 144.729 122.238 145.731 121.845 146.578C121.452 147.421 120.907 148.074 120.211 148.538C119.515 148.998 118.713 149.227 117.804 149.227C117.103 149.227 116.542 149.111 116.12 148.879C115.699 148.643 115.375 148.375 115.147 148.077C114.92 147.774 114.745 147.523 114.622 147.324H114.48V153.091H112.804ZM114.451 143.545C114.451 144.369 114.572 145.096 114.814 145.726C115.055 146.351 115.408 146.841 115.872 147.196C116.336 147.546 116.904 147.722 117.576 147.722C118.277 147.722 118.862 147.537 119.331 147.168C119.804 146.794 120.159 146.292 120.396 145.662C120.637 145.027 120.758 144.322 120.758 143.545C120.758 142.778 120.64 142.087 120.403 141.472C120.171 140.851 119.818 140.361 119.345 140.001C118.876 139.637 118.287 139.455 117.576 139.455C116.895 139.455 116.322 139.627 115.858 139.973C115.394 140.314 115.043 140.792 114.806 141.408C114.57 142.018 114.451 142.731 114.451 143.545ZM130.957 146.727L134.764 138.091H136.355L131.639 149H130.275L125.645 138.091H127.207L130.957 146.727ZM126.667 138.091V149H124.991V138.091H126.667ZM135.247 149V138.091H136.923V149H135.247ZM140.68 153.091C140.396 153.091 140.143 153.067 139.92 153.02C139.698 152.977 139.544 152.935 139.458 152.892L139.885 151.415C140.292 151.519 140.652 151.557 140.964 151.528C141.277 151.5 141.554 151.36 141.795 151.109C142.041 150.863 142.266 150.463 142.47 149.909L142.782 149.057L138.748 138.091H140.566L143.578 146.784H143.691L146.703 138.091H148.521L143.89 150.591C143.682 151.154 143.424 151.621 143.116 151.99C142.808 152.364 142.451 152.641 142.044 152.821C141.641 153.001 141.187 153.091 140.68 153.091ZM158.034 146.528L163.29 138.091H165.222V149H163.546V140.562L158.319 149H156.358V138.091H158.034V146.528ZM178.349 149.227C177.326 149.227 176.445 148.986 175.707 148.503C174.968 148.02 174.4 147.355 174.002 146.507C173.604 145.66 173.406 144.691 173.406 143.602C173.406 142.494 173.609 141.517 174.016 140.669C174.428 139.817 175.001 139.152 175.735 138.673C176.474 138.19 177.335 137.949 178.32 137.949C179.087 137.949 179.779 138.091 180.394 138.375C181.01 138.659 181.514 139.057 181.907 139.568C182.3 140.08 182.544 140.676 182.638 141.358H180.962C180.835 140.861 180.55 140.42 180.11 140.037C179.674 139.649 179.087 139.455 178.349 139.455C177.695 139.455 177.122 139.625 176.63 139.966C176.142 140.302 175.761 140.778 175.487 141.393C175.217 142.004 175.082 142.722 175.082 143.545C175.082 144.388 175.214 145.122 175.479 145.747C175.749 146.372 176.128 146.857 176.616 147.203C177.108 147.549 177.686 147.722 178.349 147.722C178.784 147.722 179.18 147.646 179.535 147.494C179.89 147.343 180.191 147.125 180.437 146.841C180.683 146.557 180.858 146.216 180.962 145.818H182.638C182.544 146.462 182.309 147.042 181.935 147.558C181.566 148.07 181.076 148.477 180.465 148.78C179.859 149.078 179.154 149.227 178.349 149.227ZM184.229 139.653V138.091H193.093V139.653H189.513V149H187.837V139.653H184.229ZM198.182 149.256C197.491 149.256 196.863 149.125 196.3 148.865C195.736 148.6 195.289 148.219 194.957 147.722C194.626 147.22 194.46 146.614 194.46 145.903C194.46 145.278 194.583 144.772 194.83 144.384C195.076 143.991 195.405 143.683 195.817 143.46C196.229 143.238 196.683 143.072 197.18 142.963C197.682 142.849 198.187 142.759 198.693 142.693C199.356 142.608 199.893 142.544 200.305 142.501C200.722 142.454 201.025 142.376 201.214 142.267C201.409 142.158 201.506 141.969 201.506 141.699V141.642C201.506 140.941 201.314 140.397 200.93 140.009C200.552 139.62 199.976 139.426 199.205 139.426C198.404 139.426 197.777 139.601 197.322 139.952C196.868 140.302 196.548 140.676 196.364 141.074L194.773 140.506C195.057 139.843 195.436 139.327 195.909 138.957C196.387 138.583 196.908 138.323 197.472 138.176C198.04 138.025 198.598 137.949 199.148 137.949C199.498 137.949 199.901 137.991 200.355 138.077C200.814 138.157 201.257 138.325 201.683 138.581C202.114 138.837 202.472 139.223 202.756 139.739C203.04 140.255 203.182 140.946 203.182 141.812V149H201.506V147.523H201.42C201.307 147.759 201.117 148.013 200.852 148.283C200.587 148.553 200.234 148.782 199.794 148.972C199.354 149.161 198.816 149.256 198.182 149.256ZM198.438 147.75C199.1 147.75 199.659 147.62 200.114 147.359C200.573 147.099 200.919 146.763 201.151 146.351C201.387 145.939 201.506 145.506 201.506 145.051V143.517C201.435 143.602 201.278 143.68 201.037 143.751C200.8 143.818 200.526 143.877 200.213 143.929C199.905 143.976 199.605 144.019 199.311 144.057C199.022 144.09 198.788 144.118 198.608 144.142C198.172 144.199 197.765 144.291 197.386 144.419C197.012 144.542 196.709 144.729 196.477 144.98C196.25 145.226 196.136 145.562 196.136 145.989C196.136 146.571 196.352 147.011 196.783 147.31C197.218 147.603 197.77 147.75 198.438 147.75ZM213.542 142.778V144.341H207.52V142.778H213.542ZM207.917 138.091V149H206.241V138.091H207.917ZM214.821 138.091V149H213.145V138.091H214.821ZM219.331 142.04H222.456C223.734 142.04 224.712 142.364 225.389 143.013C226.066 143.661 226.404 144.483 226.404 145.477C226.404 146.131 226.253 146.725 225.95 147.26C225.647 147.79 225.202 148.214 224.615 148.531C224.028 148.844 223.308 149 222.456 149H217.882V138.091H219.558V147.438H222.456C223.118 147.438 223.663 147.262 224.089 146.912C224.515 146.562 224.728 146.112 224.728 145.562C224.728 144.985 224.515 144.514 224.089 144.149C223.663 143.785 223.118 143.602 222.456 143.602H219.331V142.04ZM9.94318 162.091V173H8.26705V162.091H9.94318ZM9.28977 167.29V168.852C8.91099 168.994 8.53456 169.12 8.16051 169.229C7.78646 169.333 7.39347 169.416 6.98153 169.477C6.5696 169.534 6.11742 169.562 5.625 169.562C4.3892 169.562 3.39725 169.229 2.64915 168.561C1.90578 167.893 1.53409 166.892 1.53409 165.557V162.062H3.21023V165.557C3.21023 166.116 3.31676 166.575 3.52983 166.935C3.7429 167.295 4.03172 167.562 4.39631 167.737C4.76089 167.912 5.17045 168 5.625 168C6.33523 168 6.9768 167.936 7.54972 167.808C8.12737 167.676 8.70739 167.503 9.28977 167.29ZM16.2287 173.256C15.5374 173.256 14.91 173.125 14.3466 172.865C13.7831 172.6 13.3357 172.219 13.0043 171.722C12.6728 171.22 12.5071 170.614 12.5071 169.903C12.5071 169.278 12.6302 168.772 12.8764 168.384C13.1226 167.991 13.4517 167.683 13.8636 167.46C14.2756 167.238 14.7301 167.072 15.2273 166.963C15.7292 166.849 16.2334 166.759 16.7401 166.693C17.4029 166.608 17.9403 166.544 18.3523 166.501C18.7689 166.454 19.072 166.376 19.2614 166.267C19.4555 166.158 19.5526 165.969 19.5526 165.699V165.642C19.5526 164.941 19.3608 164.397 18.9773 164.009C18.5985 163.62 18.0232 163.426 17.2514 163.426C16.4512 163.426 15.8239 163.601 15.3693 163.952C14.9148 164.302 14.5952 164.676 14.4105 165.074L12.8196 164.506C13.1037 163.843 13.4825 163.327 13.956 162.957C14.4342 162.583 14.955 162.323 15.5185 162.176C16.0866 162.025 16.6454 161.949 17.1946 161.949C17.545 161.949 17.9474 161.991 18.402 162.077C18.8613 162.157 19.304 162.325 19.7301 162.581C20.161 162.837 20.5185 163.223 20.8026 163.739C21.0866 164.255 21.2287 164.946 21.2287 165.812V173H19.5526V171.523H19.4673C19.3537 171.759 19.1643 172.013 18.8991 172.283C18.634 172.553 18.2813 172.782 17.8409 172.972C17.4006 173.161 16.8632 173.256 16.2287 173.256ZM16.4844 171.75C17.1473 171.75 17.706 171.62 18.1605 171.359C18.6198 171.099 18.9654 170.763 19.1974 170.351C19.4342 169.939 19.5526 169.506 19.5526 169.051V167.517C19.4815 167.602 19.3253 167.68 19.0838 167.751C18.8471 167.818 18.5724 167.877 18.2599 167.929C17.9522 167.976 17.6515 168.019 17.358 168.057C17.0691 168.09 16.8348 168.118 16.6548 168.142C16.2192 168.199 15.812 168.291 15.4332 168.419C15.0592 168.542 14.7562 168.729 14.5241 168.98C14.2969 169.226 14.1832 169.562 14.1832 169.989C14.1832 170.571 14.3987 171.011 14.8295 171.31C15.2652 171.603 15.8168 171.75 16.4844 171.75ZM28.7198 173.227C27.6971 173.227 26.8164 172.986 26.0778 172.503C25.3391 172.02 24.771 171.355 24.3732 170.507C23.9755 169.66 23.7766 168.691 23.7766 167.602C23.7766 166.494 23.9802 165.517 24.3874 164.669C24.7994 163.817 25.3723 163.152 26.1062 162.673C26.8448 162.19 27.7066 161.949 28.6914 161.949C29.4585 161.949 30.1497 162.091 30.7653 162.375C31.3808 162.659 31.8851 163.057 32.2781 163.568C32.671 164.08 32.9149 164.676 33.0096 165.358H31.3335C31.2056 164.861 30.9215 164.42 30.4812 164.037C30.0456 163.649 29.4585 163.455 28.7198 163.455C28.0664 163.455 27.4935 163.625 27.0011 163.966C26.5134 164.302 26.1322 164.778 25.8576 165.393C25.5877 166.004 25.4528 166.722 25.4528 167.545C25.4528 168.388 25.5853 169.122 25.8505 169.747C26.1204 170.372 26.4992 170.857 26.9869 171.203C27.4793 171.549 28.0569 171.722 28.7198 171.722C29.1554 171.722 29.5508 171.646 29.9059 171.494C30.261 171.343 30.5617 171.125 30.8079 170.841C31.0541 170.557 31.2293 170.216 31.3335 169.818H33.0096C32.9149 170.462 32.6805 171.042 32.3065 171.558C31.9371 172.07 31.4471 172.477 30.8363 172.78C30.2302 173.078 29.5247 173.227 28.7198 173.227ZM34.6005 163.653V162.091H43.4641V163.653H39.8846V173H38.2085V163.653H34.6005ZM47.358 166.04H50.483C51.7614 166.04 52.7391 166.364 53.4162 167.013C54.0933 167.661 54.4318 168.483 54.4318 169.477C54.4318 170.131 54.2803 170.725 53.9773 171.26C53.6742 171.79 53.2292 172.214 52.642 172.531C52.0549 172.844 51.3352 173 50.483 173H45.9091V162.091H47.5852V171.438H50.483C51.1458 171.438 51.6903 171.262 52.1165 170.912C52.5426 170.562 52.7557 170.112 52.7557 169.562C52.7557 168.985 52.5426 168.514 52.1165 168.149C51.6903 167.785 51.1458 167.602 50.483 167.602H47.358V166.04ZM62.6083 173V162.091H64.2844V166.835H65.3924L69.3129 162.091H71.4719L67.0685 167.347L71.5288 173H69.3697L65.7901 168.398H64.2844V173H62.6083ZM77.3331 173.227C76.3482 173.227 75.4841 172.993 74.7408 172.524C74.0021 172.055 73.4245 171.4 73.0078 170.557C72.5959 169.714 72.3899 168.729 72.3899 167.602C72.3899 166.466 72.5959 165.474 73.0078 164.626C73.4245 163.779 74.0021 163.121 74.7408 162.652C75.4841 162.183 76.3482 161.949 77.3331 161.949C78.3179 161.949 79.1797 162.183 79.9183 162.652C80.6617 163.121 81.2393 163.779 81.6513 164.626C82.0679 165.474 82.2763 166.466 82.2763 167.602C82.2763 168.729 82.0679 169.714 81.6513 170.557C81.2393 171.4 80.6617 172.055 79.9183 172.524C79.1797 172.993 78.3179 173.227 77.3331 173.227ZM77.3331 171.722C78.0812 171.722 78.6967 171.53 79.1797 171.146C79.6626 170.763 80.0201 170.259 80.2521 169.634C80.4841 169.009 80.6001 168.331 80.6001 167.602C80.6001 166.873 80.4841 166.194 80.2521 165.564C80.0201 164.934 79.6626 164.425 79.1797 164.037C78.6967 163.649 78.0812 163.455 77.3331 163.455C76.585 163.455 75.9695 163.649 75.4865 164.037C75.0036 164.425 74.6461 164.934 74.4141 165.564C74.1821 166.194 74.0661 166.873 74.0661 167.602C74.0661 168.331 74.1821 169.009 74.4141 169.634C74.6461 170.259 75.0036 170.763 75.4865 171.146C75.9695 171.53 76.585 171.722 77.3331 171.722ZM90.8008 170.727L94.6076 162.091H96.1985L91.4826 173H90.119L85.4883 162.091H87.0508L90.8008 170.727ZM86.511 162.091V173H84.8349V162.091H86.511ZM95.0906 173V162.091H96.7667V173H95.0906ZM103.045 173.256C102.354 173.256 101.726 173.125 101.163 172.865C100.6 172.6 100.152 172.219 99.8207 171.722C99.4892 171.22 99.3235 170.614 99.3235 169.903C99.3235 169.278 99.4466 168.772 99.6928 168.384C99.939 167.991 100.268 167.683 100.68 167.46C101.092 167.238 101.547 167.072 102.044 166.963C102.546 166.849 103.05 166.759 103.556 166.693C104.219 166.608 104.757 166.544 105.169 166.501C105.585 166.454 105.888 166.376 106.078 166.267C106.272 166.158 106.369 165.969 106.369 165.699V165.642C106.369 164.941 106.177 164.397 105.794 164.009C105.415 163.62 104.84 163.426 104.068 163.426C103.268 163.426 102.64 163.601 102.186 163.952C101.731 164.302 101.412 164.676 101.227 165.074L99.636 164.506C99.9201 163.843 100.299 163.327 100.772 162.957C101.251 162.583 101.771 162.323 102.335 162.176C102.903 162.025 103.462 161.949 104.011 161.949C104.361 161.949 104.764 161.991 105.218 162.077C105.678 162.157 106.12 162.325 106.547 162.581C106.977 162.837 107.335 163.223 107.619 163.739C107.903 164.255 108.045 164.946 108.045 165.812V173H106.369V171.523H106.284C106.17 171.759 105.981 172.013 105.716 172.283C105.45 172.553 105.098 172.782 104.657 172.972C104.217 173.161 103.68 173.256 103.045 173.256ZM103.301 171.75C103.964 171.75 104.522 171.62 104.977 171.359C105.436 171.099 105.782 170.763 106.014 170.351C106.251 169.939 106.369 169.506 106.369 169.051V167.517C106.298 167.602 106.142 167.68 105.9 167.751C105.663 167.818 105.389 167.877 105.076 167.929C104.769 167.976 104.468 168.019 104.174 168.057C103.886 168.09 103.651 168.118 103.471 168.142C103.036 168.199 102.628 168.291 102.25 168.419C101.876 168.542 101.573 168.729 101.341 168.98C101.113 169.226 101 169.562 101 169.989C101 170.571 101.215 171.011 101.646 171.31C102.082 171.603 102.633 171.75 103.301 171.75ZM118.406 166.778V168.341H112.383V166.778H118.406ZM112.781 162.091V173H111.104V162.091H112.781ZM119.684 162.091V173H118.008V162.091H119.684ZM121.58 176.125V171.438H122.489C122.712 171.205 122.904 170.955 123.065 170.685C123.226 170.415 123.365 170.095 123.484 169.726C123.607 169.352 123.711 168.897 123.796 168.362C123.881 167.822 123.957 167.171 124.023 166.409L124.393 162.091H131.325V171.438H133.001V176.125H131.325V173H123.256V176.125H121.58ZM124.393 171.438H129.648V163.653H125.955L125.671 166.409C125.553 167.55 125.406 168.547 125.231 169.399C125.056 170.251 124.776 170.931 124.393 171.438ZM136.674 166.04H139.799C141.078 166.04 142.056 166.364 142.733 167.013C143.41 167.661 143.748 168.483 143.748 169.477C143.748 170.131 143.597 170.725 143.294 171.26C142.991 171.79 142.546 172.214 141.958 172.531C141.371 172.844 140.652 173 139.799 173H135.225V162.091H136.902V171.438H139.799C140.462 171.438 141.007 171.262 141.433 170.912C141.859 170.562 142.072 170.112 142.072 169.562C142.072 168.985 141.859 168.514 141.433 168.149C141.007 167.785 140.462 167.602 139.799 167.602H136.674V166.04ZM145.481 173V162.091H147.157V173H145.481Z" fill="white" fill-opacity="0.75"/>
<g clip-path="url(#clip0_63_304)">
<path d="M413.356 117.795C413.356 117.541 413.356 117.286 413.356 117.032V36.9676C413.356 36.7133 413.356 36.4589 413.356 36.2045C419.522 36.0753 424.448 31.6977 424.466 26.3316H424.447C424.437 20.8801 419.366 16.4603 413.1 16.4428H411.766C409.637 5.6693 397.874 -1.56287 385.491 0.289294C375.995 1.70981 368.557 8.18085 366.925 16.4428H365.591C359.316 16.5915 354.368 21.1376 354.538 26.5971C354.7 31.7617 359.404 35.9478 365.335 36.2045C365.335 36.4589 365.335 36.7133 365.335 36.9676V117.032C365.335 117.286 365.335 117.541 365.335 117.795C359.066 118.066 354.237 122.709 354.549 128.163C354.844 133.323 359.655 137.416 365.591 137.557H366.925C369.053 148.33 380.817 155.562 393.2 153.71C402.696 152.29 410.134 145.819 411.766 137.557H413.1C419.375 137.408 424.323 132.862 424.152 127.402C423.991 122.238 419.287 118.052 413.356 117.795ZM378.729 10.5763H378.765C384.634 5.47534 394.144 5.47932 400.007 10.5855C401.87 12.2075 403.209 14.2278 403.891 16.4428H374.837C375.518 14.2234 376.861 12.2 378.729 10.5763ZM361.936 26.2839C361.936 24.528 363.573 23.1043 365.591 23.1043H413.1C415.118 23.1456 416.715 24.6023 416.667 26.3579C416.646 27.1492 416.286 27.9052 415.658 28.4779L415.64 28.5415C414.959 29.1289 414.041 29.46 413.082 29.4636H365.591C363.573 29.4636 361.936 28.0403 361.936 26.2839ZM373.064 94.1859V82.2939L405.626 110.641V117C405.653 117.254 405.653 117.509 405.626 117.763H400.181L373.064 94.1859ZM389.181 117.795H373.137C373.11 117.541 373.11 117.286 373.137 117.032V103.709L389.181 117.795ZM405.626 59.8136V71.7215L373.064 43.3588V36.9994C373.037 36.7455 373.037 36.4903 373.064 36.2363H378.437L405.626 59.8136ZM389.437 36.2045H405.553C405.58 36.4585 405.58 36.7137 405.553 36.9676V50.2905L389.437 36.2045ZM405.626 81.2287V101.118L373.064 72.7708V52.8819L405.626 81.2287ZM399.998 143.423C394.13 148.524 384.62 148.52 378.757 143.414C376.894 141.792 375.555 139.772 374.873 137.557H403.854C403.172 139.776 401.83 141.8 399.962 143.423H399.998ZM415.589 129.939C414.921 130.501 414.03 130.821 413.1 130.832H365.591C363.573 130.832 361.936 129.408 361.936 127.652C361.936 125.896 363.573 124.473 365.591 124.473H413.1C414.063 124.497 414.976 124.851 415.64 125.458L415.677 125.442C417.079 126.705 417.041 128.718 415.589 129.939Z" fill="#D6A354"/>
</g>
<mask id="path-3-inside-1_63_304" fill="white">
<path d="M0 24H350V130H0V24Z"/>
</mask>
<path d="M0 29H350V19H0V29ZM350 125H0V135H350V125Z" fill="#D6A354" mask="url(#path-3-inside-1_63_304)"/>
<path d="M66.0227 92V62.9091H76.1932C78.2197 62.9091 79.8911 63.2595 81.2074 63.9602C82.5237 64.6515 83.5038 65.5843 84.1477 66.7585C84.7917 67.9233 85.1136 69.2159 85.1136 70.6364C85.1136 71.8864 84.8911 72.9186 84.446 73.733C84.0104 74.5473 83.4328 75.1913 82.7131 75.6648C82.0028 76.1383 81.2311 76.4886 80.3977 76.7159V77C81.2879 77.0568 82.1828 77.3693 83.0824 77.9375C83.982 78.5057 84.7348 79.3201 85.3409 80.3807C85.947 81.4413 86.25 82.7386 86.25 84.2727C86.25 85.7311 85.9186 87.0426 85.2557 88.2074C84.5928 89.3722 83.5464 90.2955 82.1165 90.9773C80.6866 91.6591 78.8258 92 76.5341 92H66.0227ZM69.5455 88.875H76.5341C78.8352 88.875 80.4688 88.4299 81.4347 87.5398C82.41 86.6402 82.8977 85.5511 82.8977 84.2727C82.8977 83.2879 82.6468 82.3788 82.1449 81.5455C81.643 80.7027 80.928 80.0303 80 79.5284C79.072 79.017 77.9735 78.7614 76.7045 78.7614H69.5455V88.875ZM69.5455 75.6932H76.0795C77.1402 75.6932 78.0966 75.4848 78.9489 75.0682C79.8106 74.6515 80.4924 74.0644 80.9943 73.3068C81.5057 72.5492 81.7614 71.6591 81.7614 70.6364C81.7614 69.358 81.3163 68.2737 80.4261 67.3835C79.536 66.4839 78.125 66.0341 76.1932 66.0341H69.5455V75.6932ZM93.2315 92H89.5384L100.22 62.9091H103.857L114.538 92H110.845L102.152 67.5114H101.925L93.2315 92ZM94.5952 80.6364H109.482V83.7614H94.5952V80.6364ZM136.172 92L126.172 78.6477H122.592V92H119.07V62.9091H122.592V75.5227H124.126L135.774 62.9091H139.979L128.217 75.6932L140.376 92H136.172ZM146.122 92H142.429L153.111 62.9091H156.747L167.429 92H163.736L155.043 67.5114H154.815L146.122 92ZM147.486 80.6364H162.372V83.7614H147.486V80.6364ZM171.96 92V62.9091H175.483V75.8636H190.994V62.9091H194.517V92H190.994V78.9886H175.483V92H171.96ZM224.979 72H221.456C221.248 70.9867 220.883 70.0966 220.362 69.3295C219.851 68.5625 219.226 67.9186 218.487 67.3977C217.758 66.8674 216.948 66.4697 216.058 66.2045C215.168 65.9394 214.24 65.8068 213.274 65.8068C211.513 65.8068 209.917 66.2519 208.487 67.142C207.067 68.0322 205.935 69.3438 205.092 71.0767C204.259 72.8097 203.842 74.9356 203.842 77.4545C203.842 79.9735 204.259 82.0994 205.092 83.8324C205.935 85.5653 207.067 86.8769 208.487 87.767C209.917 88.6572 211.513 89.1023 213.274 89.1023C214.24 89.1023 215.168 88.9697 216.058 88.7045C216.948 88.4394 217.758 88.0464 218.487 87.5256C219.226 86.9953 219.851 86.3466 220.362 85.5795C220.883 84.803 221.248 83.9129 221.456 82.9091H224.979C224.714 84.3958 224.231 85.7263 223.53 86.9006C222.829 88.0748 221.958 89.0739 220.916 89.8977C219.875 90.7121 218.705 91.3324 217.408 91.7585C216.12 92.1847 214.742 92.3977 213.274 92.3977C210.793 92.3977 208.587 91.7917 206.655 90.5795C204.723 89.3674 203.203 87.6439 202.095 85.4091C200.987 83.1742 200.433 80.5227 200.433 77.4545C200.433 74.3864 200.987 71.7348 202.095 69.5C203.203 67.2652 204.723 65.5417 206.655 64.3295C208.587 63.1174 210.793 62.5114 213.274 62.5114C214.742 62.5114 216.12 62.7244 217.408 63.1506C218.705 63.5767 219.875 64.2017 220.916 65.0256C221.958 65.84 222.829 66.8343 223.53 68.0085C224.231 69.1733 224.714 70.5038 224.979 72ZM230.671 62.9091H234.137V85.8068H234.421L250.33 62.9091H253.739V92H250.217V69.1591H249.933L234.08 92H230.671V62.9091ZM260.788 62.9091H264.254V85.8068H264.538L280.447 62.9091H283.857V92H280.334V69.1591H280.05L264.197 92H260.788V62.9091Z" fill="white"/>
<defs>
<clipPath id="clip0_63_304">
<rect width="177" height="154" fill="white" transform="translate(301)"/>
</clipPath>
</defs>
</svg>
